# 3ds Max Wavefront OBJ Exporter v0.97b - (c)2007 guruware
# File Created: 22.01.2020 15:41:03

#
# object Object001
#

v  0.3096 -0.0368 -0.0368
v  0.2910 -0.0675 -0.0341
v  0.2809 -0.0574 -0.0574
v  0.2910 -0.0341 -0.0675
v  0.3159 -0.0000 -0.0395
v  0.2960 -0.0000 -0.0725
v  0.3159 -0.0395 0.0000
v  0.2960 -0.0725 0.0000
v  0.3225 -0.0000 0.0000
v  0.2910 0.0675 -0.0341
v  0.3096 0.0368 -0.0368
v  0.2910 0.0341 -0.0675
v  0.2809 0.0574 -0.0574
v  0.2960 0.0725 0.0000
v  0.3159 0.0395 0.0000
v  0.3096 0.0368 0.0368
v  0.2910 0.0675 0.0341
v  0.2809 0.0574 0.0574
v  0.2910 0.0341 0.0675
v  0.3159 -0.0000 0.0395
v  0.2960 -0.0000 0.0725
v  0.2910 -0.0675 0.0341
v  0.3096 -0.0368 0.0368
v  0.2910 -0.0341 0.0675
v  0.2809 -0.0574 0.0574
v  0.2602 -0.0862 -0.0368
v  0.2575 -0.0675 -0.0675
v  0.2630 -0.0924 0.0000
v  0.2236 -0.0924 -0.0395
v  0.2236 -0.0725 -0.0725
v  0.2235 -0.0991 0.0000
v  0.2575 -0.0675 0.0675
v  0.2602 -0.0862 0.0368
v  0.2236 -0.0725 0.0725
v  0.2236 -0.0924 0.0395
v  0.2602 -0.0368 0.0862
v  0.2630 -0.0000 0.0924
v  0.2236 -0.0395 0.0924
v  0.2235 -0.0000 0.0991
v  0.2575 0.0675 0.0675
v  0.2602 0.0368 0.0862
v  0.2236 0.0725 0.0725
v  0.2236 0.0395 0.0924
v  0.2602 0.0862 0.0368
v  0.2630 0.0924 0.0000
v  0.2236 0.0924 0.0395
v  0.2235 0.0991 0.0000
v  0.2575 0.0675 -0.0675
v  0.2602 0.0862 -0.0368
v  0.2236 0.0725 -0.0725
v  0.2236 0.0924 -0.0395
v  0.2602 0.0368 -0.0862
v  0.2630 -0.0000 -0.0924
v  0.2236 0.0395 -0.0924
v  0.2235 -0.0000 -0.0991
v  0.2602 -0.0368 -0.0862
v  0.2236 -0.0395 -0.0924
v  -0.0034 -0.0924 -0.0395
v  -0.0034 -0.0725 -0.0725
v  -0.0034 -0.0991 -0.0000
v  -0.0034 -0.0924 0.0395
v  -0.0034 -0.0725 0.0725
v  -0.0034 -0.0395 0.0924
v  -0.0034 -0.0000 0.0991
v  -0.0034 0.0395 0.0924
v  -0.0034 0.0725 0.0725
v  -0.0034 0.0924 0.0395
v  -0.0034 0.0991 -0.0000
v  -0.0034 0.0924 -0.0395
v  -0.0034 0.0725 -0.0725
v  -0.0034 0.0395 -0.0924
v  -0.0034 -0.0000 -0.0991
v  -0.0034 -0.0395 -0.0924
# 73 vertices

vn 0.8717 -0.3465 -0.3465
vn 0.6630 -0.6630 -0.3477
vn 0.5835 -0.5835 -0.5649
vn 0.6681 -0.3454 -0.6591
vn 0.9361 -0.0037 -0.3518
vn 0.7071 -0.0000 -0.7071
vn 0.9361 -0.3518 -0.0037
vn 0.7071 -0.7071 -0.0041
vn 1.0000 0.0000 0.0000
vn 0.6642 0.6642 -0.3431
vn 0.8731 0.3448 -0.3448
vn 0.6591 0.3454 -0.6681
vn 0.5711 0.5711 -0.5897
vn 0.7071 0.7071 0.0041
vn 0.9361 0.3518 0.0037
vn 0.8717 0.3465 0.3465
vn 0.6630 0.6630 0.3477
vn 0.5835 0.5835 0.5649
vn 0.6681 0.3454 0.6591
vn 0.9361 0.0037 0.3518
vn 0.7071 0.0000 0.7071
vn 0.6642 -0.6642 0.3431
vn 0.8731 -0.3448 0.3448
vn 0.6591 -0.3454 0.6681
vn 0.5711 -0.5711 0.5897
vn 0.3466 -0.8717 -0.3465
vn 0.3456 -0.6680 -0.6590
vn 0.3520 -0.9360 -0.0037
vn 0.0927 -0.9328 -0.3481
vn 0.0985 -0.7051 -0.7023
vn 0.0844 -0.9964 -0.0017
vn 0.3456 -0.6590 0.6680
vn 0.3450 -0.8730 0.3448
vn 0.0985 -0.7023 0.7051
vn 0.0890 -0.9333 0.3480
vn 0.3466 -0.3465 0.8717
vn 0.3520 -0.0037 0.9360
vn 0.0927 -0.3481 0.9328
vn 0.0844 -0.0017 0.9964
vn 0.3456 0.6680 0.6590
vn 0.3450 0.3448 0.8730
vn 0.0985 0.7051 0.7023
vn 0.0890 0.3480 0.9333
vn 0.3466 0.8717 0.3465
vn 0.3520 0.9360 0.0037
vn 0.0927 0.9328 0.3481
vn 0.0844 0.9964 0.0017
vn 0.3456 0.6590 -0.6680
vn 0.3450 0.8730 -0.3448
vn 0.0985 0.7023 -0.7051
vn 0.0890 0.9333 -0.3480
vn 0.3466 0.3465 -0.8717
vn 0.3520 0.0037 -0.9360
vn 0.0927 0.3481 -0.9328
vn 0.0844 0.0017 -0.9964
vn 0.3450 -0.3448 -0.8730
vn 0.0890 -0.3480 -0.9333
vn 0.0000 -0.9378 -0.3473
vn 0.0000 -0.7071 -0.7071
vn 0.0000 -1.0000 0.0000
vn 0.0000 -0.9378 0.3473
vn 0.0000 -0.7071 0.7071
vn 0.0000 -0.3473 0.9378
vn 0.0000 0.0000 1.0000
vn 0.0000 0.3473 0.9378
vn 0.0000 0.7071 0.7071
vn 0.0000 0.9378 0.3473
vn 0.0000 1.0000 -0.0000
vn 0.0000 0.9378 -0.3473
vn 0.0000 0.7071 -0.7071
vn 0.0000 0.3473 -0.9378
vn 0.0000 -0.0000 -1.0000
vn 0.0000 -0.3473 -0.9378
# 73 vertex normals

vt 0.7500 0.2500 0.0000
vt 0.7500 0.0000 0.0000
vt 1.0000 0.0000 0.0000
vt 1.0000 0.2500 0.0000
vt 0.7500 0.5000 0.0000
vt 1.0000 0.5000 0.0000
vt 0.5000 0.2500 0.0000
vt 0.5000 0.0000 0.0000
vt 0.5000 0.5000 0.0000
vt 0.7500 1.0000 0.0000
vt 0.7500 0.7500 0.0000
vt 1.0000 0.7500 0.0000
vt 1.0000 1.0000 0.0000
vt 0.5000 1.0000 0.0000
vt 0.5000 0.7500 0.0000
vt 0.2500 0.7500 0.0000
vt 0.2500 1.0000 0.0000
vt 0.0000 1.0000 0.0000
vt 0.0000 0.7500 0.0000
vt 0.2500 0.5000 0.0000
vt 0.0000 0.5000 0.0000
vt 0.2500 0.0000 0.0000
vt 0.2500 0.2500 0.0000
vt 0.0000 0.2500 0.0000
vt 0.0000 0.0000 0.0000
# 25 texture coords

g Object001
s 1
f 1/1/1 2/2/2 3/3/3 4/4/4 
f 5/5/5 1/1/1 4/4/4 6/6/6 
f 7/7/7 8/8/8 2/2/2 1/1/1 
f 9/9/9 7/7/7 1/1/1 5/5/5 
f 10/10/10 11/11/11 12/12/12 13/13/13 
f 14/14/14 15/15/15 11/11/11 10/10/10 
f 11/11/11 5/5/5 6/6/6 12/12/12 
f 15/15/15 9/9/9 5/5/5 11/11/11 
f 16/16/16 17/17/17 18/18/18 19/19/19 
f 20/20/20 16/16/16 19/19/19 21/21/21 
f 15/15/15 14/14/14 17/17/17 16/16/16 
f 9/9/9 15/15/15 16/16/16 20/20/20 
f 22/22/22 23/23/23 24/24/24 25/25/25 
f 8/8/8 7/7/7 23/23/23 22/22/22 
f 23/23/23 20/20/20 21/21/21 24/24/24 
f 7/7/7 9/9/9 20/20/20 23/23/23 
f 26/23/26 27/24/27 3/25/3 2/22/2 
f 28/7/28 26/23/26 2/22/2 8/8/8 
f 29/20/29 30/21/30 27/24/27 26/23/26 
f 31/9/31 29/20/29 26/23/26 28/7/28 
f 32/4/32 33/1/33 22/2/22 25/3/25 
f 34/6/34 35/5/35 33/1/33 32/4/32 
f 33/1/33 28/7/28 8/8/8 22/2/22 
f 35/5/35 31/9/31 28/7/28 33/1/33 
f 36/23/36 32/24/32 25/25/25 24/22/24 
f 37/7/37 36/23/36 24/22/24 21/8/21 
f 38/20/38 34/21/34 32/24/32 36/23/36 
f 39/9/39 38/20/38 36/23/36 37/7/37 
f 40/4/40 41/1/41 19/2/19 18/3/18 
f 42/6/42 43/5/43 41/1/41 40/4/40 
f 41/1/41 37/7/37 21/8/21 19/2/19 
f 43/5/43 39/9/39 37/7/37 41/1/41 
f 44/23/44 40/24/40 18/25/18 17/22/17 
f 45/7/45 44/23/44 17/22/17 14/8/14 
f 46/20/46 42/21/42 40/24/40 44/23/44 
f 47/9/47 46/20/46 44/23/44 45/7/45 
f 48/4/48 49/1/49 10/2/10 13/3/13 
f 50/6/50 51/5/51 49/1/49 48/4/48 
f 49/1/49 45/7/45 14/8/14 10/2/10 
f 51/5/51 47/9/47 45/7/45 49/1/49 
f 52/23/52 48/24/48 13/25/13 12/22/12 
f 53/7/53 52/23/52 12/22/12 6/8/6 
f 54/20/54 50/21/50 48/24/48 52/23/52 
f 55/9/55 54/20/54 52/23/52 53/7/53 
f 27/4/27 56/1/56 4/2/4 3/3/3 
f 30/6/30 57/5/57 56/1/56 27/4/27 
f 56/1/56 53/7/53 6/8/6 4/2/4 
f 57/5/57 55/9/55 53/7/53 56/1/56 
f 29/20/29 58/20/58 59/21/59 30/21/30 
f 31/9/31 60/9/60 58/20/58 29/20/29 
f 35/5/35 61/5/61 60/9/60 31/9/31 
f 34/6/34 62/6/62 61/5/61 35/5/35 
f 38/20/38 63/20/63 62/21/62 34/21/34 
f 39/9/39 64/9/64 63/20/63 38/20/38 
f 43/5/43 65/5/65 64/9/64 39/9/39 
f 42/6/42 66/6/66 65/5/65 43/5/43 
f 46/20/46 67/20/67 66/21/66 42/21/42 
f 47/9/47 68/9/68 67/20/67 46/20/46 
f 51/5/51 69/5/69 68/9/68 47/9/47 
f 50/6/50 70/6/70 69/5/69 51/5/51 
f 54/20/54 71/20/71 70/21/70 50/21/50 
f 55/9/55 72/9/72 71/20/71 54/20/54 
f 57/5/57 73/5/73 72/9/72 55/9/55 
f 30/6/30 59/6/59 73/5/73 57/5/57 
# 64 polygons

#
# object Box001
#

v  -0.3089 -0.0364 -0.0364
v  -0.2905 -0.0337 -0.0668
v  -0.2804 -0.0568 -0.0568
v  -0.2905 -0.0668 -0.0337
v  -0.3151 -0.0391 -0.0000
v  -0.2954 -0.0718 -0.0000
v  -0.3151 -0.0000 -0.0391
v  -0.2954 -0.0000 -0.0718
v  -0.3217 -0.0000 -0.0000
v  -0.2905 -0.0337 0.0668
v  -0.3089 -0.0364 0.0364
v  -0.2905 -0.0668 0.0337
v  -0.2804 -0.0568 0.0568
v  -0.2954 -0.0000 0.0718
v  -0.3151 -0.0000 0.0391
v  -0.3089 0.0364 0.0364
v  -0.2905 0.0337 0.0668
v  -0.2804 0.0568 0.0568
v  -0.2905 0.0668 0.0337
v  -0.3151 0.0391 -0.0000
v  -0.2954 0.0718 -0.0000
v  -0.2905 0.0337 -0.0668
v  -0.3089 0.0364 -0.0364
v  -0.2905 0.0668 -0.0337
v  -0.2804 0.0568 -0.0568
v  -0.2600 -0.0853 0.0364
v  -0.2573 -0.0668 0.0668
v  -0.2628 -0.0915 -0.0000
v  -0.2236 -0.0915 0.0391
v  -0.2236 -0.0718 0.0718
v  -0.2236 -0.0980 -0.0000
v  -0.2573 -0.0668 -0.0668
v  -0.2600 -0.0853 -0.0364
v  -0.2236 -0.0718 -0.0718
v  -0.2236 -0.0915 -0.0391
v  -0.2600 0.0364 0.0853
v  -0.2573 0.0668 0.0668
v  -0.2628 -0.0000 0.0915
v  -0.2236 0.0391 0.0915
v  -0.2236 0.0718 0.0718
v  -0.2236 -0.0000 0.0980
v  -0.2600 -0.0364 0.0853
v  -0.2236 -0.0391 0.0915
v  -0.2600 0.0853 -0.0364
v  -0.2573 0.0668 -0.0668
v  -0.2628 0.0915 -0.0000
v  -0.2236 0.0915 -0.0391
v  -0.2236 0.0718 -0.0718
v  -0.2236 0.0980 -0.0000
v  -0.2600 0.0853 0.0364
v  -0.2236 0.0915 0.0391
v  -0.2600 -0.0364 -0.0853
v  -0.2628 -0.0000 -0.0915
v  -0.2236 -0.0391 -0.0915
v  -0.2236 -0.0000 -0.0980
v  -0.2600 0.0364 -0.0853
v  -0.2236 0.0391 -0.0915
v  0.0033 -0.0718 -0.0718
v  0.0033 -0.0915 -0.0391
v  0.0033 -0.0980 0.0000
v  0.0033 -0.0915 0.0391
v  0.0033 -0.0718 0.0718
v  0.0033 -0.0391 0.0915
v  0.0033 -0.0000 0.0980
v  0.0033 0.0391 0.0915
v  0.0033 0.0718 0.0718
v  0.0033 0.0915 0.0391
v  0.0033 0.0980 0.0000
v  0.0033 0.0915 -0.0391
v  0.0033 0.0718 -0.0718
v  0.0033 0.0391 -0.0915
v  0.0033 -0.0000 -0.0980
v  0.0033 -0.0391 -0.0915
# 73 vertices

vn -0.8717 -0.3465 -0.3465
vn -0.6629 -0.3480 -0.6629
vn -0.5836 -0.5647 -0.5836
vn -0.6681 -0.6590 -0.3456
vn -0.9361 -0.3517 -0.0037
vn -0.7071 -0.7071 -0.0000
vn -0.9361 -0.0037 -0.3517
vn -0.7071 -0.0041 -0.7071
vn -1.0000 -0.0000 -0.0000
vn -0.6641 -0.3433 0.6641
vn -0.8731 -0.3448 0.3448
vn -0.6590 -0.6681 0.3456
vn -0.5710 -0.5898 0.5710
vn -0.7071 0.0041 0.7071
vn -0.9361 0.0037 0.3517
vn -0.8717 0.3465 0.3465
vn -0.6629 0.3480 0.6629
vn -0.5836 0.5647 0.5836
vn -0.6681 0.6590 0.3456
vn -0.9361 0.3517 0.0037
vn -0.7071 0.7071 -0.0000
vn -0.6641 0.3433 -0.6641
vn -0.8731 0.3448 -0.3448
vn -0.6590 0.6681 -0.3456
vn -0.5710 0.5898 -0.5710
vn -0.3465 -0.8717 0.3465
vn -0.3456 -0.6681 0.6590
vn -0.3517 -0.9361 0.0037
vn -0.0926 -0.9329 0.3480
vn -0.0984 -0.7051 0.7023
vn -0.0843 -0.9964 0.0017
vn -0.3456 -0.6590 -0.6681
vn -0.3448 -0.8731 -0.3448
vn -0.0984 -0.7023 -0.7051
vn -0.0888 -0.9333 -0.3479
vn -0.3465 0.3465 0.8717
vn -0.3456 0.6590 0.6681
vn -0.3517 0.0037 0.9361
vn -0.0926 0.3480 0.9329
vn -0.0984 0.7023 0.7051
vn -0.0843 0.0017 0.9964
vn -0.3448 -0.3448 0.8731
vn -0.0888 -0.3479 0.9333
vn -0.3465 0.8717 -0.3465
vn -0.3456 0.6681 -0.6590
vn -0.3517 0.9361 -0.0037
vn -0.0926 0.9329 -0.3480
vn -0.0984 0.7051 -0.7023
vn -0.0843 0.9964 -0.0017
vn -0.3448 0.8731 0.3448
vn -0.0888 0.9333 0.3479
vn -0.3465 -0.3465 -0.8717
vn -0.3517 -0.0037 -0.9361
vn -0.0926 -0.3480 -0.9329
vn -0.0843 -0.0017 -0.9964
vn -0.3448 0.3448 -0.8731
vn -0.0888 0.3479 -0.9333
vn 0.0000 -0.7071 -0.7071
vn 0.0000 -0.9378 -0.3471
vn 0.0000 -1.0000 0.0000
vn -0.0000 -0.9378 0.3471
vn -0.0000 -0.7071 0.7071
vn -0.0000 -0.3471 0.9378
vn -0.0000 0.0000 1.0000
vn -0.0000 0.3471 0.9378
vn -0.0000 0.7071 0.7071
vn -0.0000 0.9378 0.3471
vn -0.0000 1.0000 -0.0000
vn 0.0000 0.9378 -0.3471
vn 0.0000 0.7071 -0.7071
vn 0.0000 0.3471 -0.9378
vn 0.0000 -0.0000 -1.0000
vn 0.0000 -0.3471 -0.9378
# 73 vertex normals

vt 0.2500 0.2500 0.0000
vt 0.0000 0.2500 0.0000
vt 0.0000 0.0000 0.0000
vt 0.2500 0.0000 0.0000
vt 0.5000 0.2500 0.0000
vt 0.5000 0.0000 0.0000
vt 0.2500 0.5000 0.0000
vt 0.0000 0.5000 0.0000
vt 0.5000 0.5000 0.0000
vt 1.0000 0.2500 0.0000
vt 0.7500 0.2500 0.0000
vt 0.7500 0.0000 0.0000
vt 1.0000 0.0000 0.0000
vt 1.0000 0.5000 0.0000
vt 0.7500 0.5000 0.0000
vt 0.7500 0.7500 0.0000
vt 1.0000 0.7500 0.0000
vt 1.0000 1.0000 0.0000
vt 0.7500 1.0000 0.0000
vt 0.5000 0.7500 0.0000
vt 0.5000 1.0000 0.0000
vt 0.0000 0.7500 0.0000
vt 0.2500 0.7500 0.0000
vt 0.2500 1.0000 0.0000
vt 0.0000 1.0000 0.0000
# 25 texture coords

g Box001
s 1
f 74/26/74 75/27/75 76/28/76 77/29/77 
f 78/30/78 74/26/74 77/29/77 79/31/79 
f 80/32/80 81/33/81 75/27/75 74/26/74 
f 82/34/82 80/32/80 74/26/74 78/30/78 
f 83/35/83 84/36/84 85/37/85 86/38/86 
f 87/39/87 88/40/88 84/36/84 83/35/83 
f 84/36/84 78/30/78 79/31/79 85/37/85 
f 88/40/88 82/34/82 78/30/78 84/36/84 
f 89/41/89 90/42/90 91/43/91 92/44/92 
f 93/45/93 89/41/89 92/44/92 94/46/94 
f 88/40/88 87/39/87 90/42/90 89/41/89 
f 82/34/82 88/40/88 89/41/89 93/45/93 
f 95/47/95 96/48/96 97/49/97 98/50/98 
f 81/33/81 80/32/80 96/48/96 95/47/95 
f 96/48/96 93/45/93 94/46/94 97/49/97 
f 80/32/80 82/34/82 93/45/93 96/48/96 
f 99/41/99 100/42/100 86/43/86 85/44/85 
f 101/45/101 99/41/99 85/44/85 79/46/79 
f 102/40/102 103/39/103 100/42/100 99/41/99 
f 104/34/104 102/40/102 99/41/99 101/45/101 
f 105/47/105 106/48/106 77/49/77 76/50/76 
f 107/33/107 108/32/108 106/48/106 105/47/105 
f 106/48/106 101/45/101 79/46/79 77/49/77 
f 108/32/108 104/34/104 101/45/101 106/48/106 
f 109/41/109 110/42/110 91/43/91 90/44/90 
f 111/45/111 109/41/109 90/44/90 87/46/87 
f 112/40/112 113/39/113 110/42/110 109/41/109 
f 114/34/114 112/40/112 109/41/109 111/45/111 
f 100/47/100 115/48/115 83/49/83 86/50/86 
f 103/33/103 116/32/116 115/48/115 100/47/100 
f 115/48/115 111/45/111 87/46/87 83/49/83 
f 116/32/116 114/34/114 111/45/111 115/48/115 
f 117/41/117 118/42/118 98/43/98 97/44/97 
f 119/45/119 117/41/117 97/44/97 94/46/94 
f 120/40/120 121/39/121 118/42/118 117/41/117 
f 122/34/122 120/40/120 117/41/117 119/45/119 
f 110/47/110 123/48/123 92/49/92 91/50/91 
f 113/33/113 124/32/124 123/48/123 110/47/110 
f 123/48/123 119/45/119 94/46/94 92/49/92 
f 124/32/124 122/34/122 119/45/119 123/48/123 
f 125/41/125 105/42/105 76/43/76 75/44/75 
f 126/45/126 125/41/125 75/44/75 81/46/81 
f 127/40/127 107/39/107 105/42/105 125/41/125 
f 128/34/128 127/40/127 125/41/125 126/45/126 
f 118/47/118 129/48/129 95/49/95 98/50/98 
f 121/33/121 130/32/130 129/48/129 118/47/118 
f 129/48/129 126/45/126 81/46/81 95/49/95 
f 130/32/130 128/34/128 126/45/126 129/48/129 
f 108/32/108 107/33/107 131/33/131 132/32/132 
f 104/34/104 108/32/108 132/32/132 133/34/133 
f 102/40/102 104/34/104 133/34/133 134/40/134 
f 103/39/103 102/40/102 134/40/134 135/39/135 
f 116/32/116 103/33/103 135/33/135 136/32/136 
f 114/34/114 116/32/116 136/32/136 137/34/137 
f 112/40/112 114/34/114 137/34/137 138/40/138 
f 113/39/113 112/40/112 138/40/138 139/39/139 
f 124/32/124 113/33/113 139/33/139 140/32/140 
f 122/34/122 124/32/124 140/32/140 141/34/141 
f 120/40/120 122/34/122 141/34/141 142/40/142 
f 121/39/121 120/40/120 142/40/142 143/39/143 
f 130/32/130 121/33/121 143/33/143 144/32/144 
f 128/34/128 130/32/130 144/32/144 145/34/145 
f 127/40/127 128/34/128 145/34/145 146/40/146 
f 107/39/107 127/40/127 146/40/146 131/39/131 
# 64 polygons

