# 3ds Max Wavefront OBJ Exporter v0.97b - (c)2007 guruware
# File Created: 16.10.2018 17:49:34

mtllib Crayon.mtl

#
# object CRAYON_01
#

v  0.2914 0.0000 0.1880
v  0.3086 0.0000 0.1584
v  0.3086 16.9625 0.1584
v  0.2914 16.9625 0.1880
v  0.3086 -0.0000 -0.1584
v  0.2914 -0.0000 -0.1880
v  0.2914 16.9625 -0.1880
v  0.3086 16.9625 -0.1584
v  0.0171 -0.0000 -0.3464
v  -0.0171 -0.0000 -0.3464
v  -0.0171 16.9625 -0.3464
v  0.0171 16.9625 -0.3464
v  -0.2914 -0.0000 -0.1880
v  -0.3086 -0.0000 -0.1584
v  -0.3086 16.9625 -0.1584
v  -0.2914 16.9625 -0.1880
v  -0.3086 0.0000 0.1584
v  -0.2914 0.0000 0.1880
v  -0.2914 16.9625 0.1880
v  -0.3086 16.9625 0.1584
v  -0.0171 0.0000 0.3464
v  0.0171 0.0000 0.3464
v  0.0171 16.9625 0.3464
v  -0.0171 16.9625 0.3464
v  -0.0609 0.0000 0.1056
v  -0.1219 0.0000 0.0000
v  0.1219 -0.0000 0.0000
v  0.0609 0.0000 0.1056
v  0.2171 -0.0000 0.0000
v  0.1086 0.0000 0.1880
v  -0.1086 0.0000 0.1880
v  -0.2171 0.0000 -0.0000
v  -0.1086 -0.0000 -0.1880
v  -0.0609 -0.0000 -0.1056
v  0.1086 -0.0000 -0.1880
v  0.0609 -0.0000 -0.1056
v  0.1543 0.0000 0.2672
v  0.3086 -0.0000 0.0000
v  0.1543 -0.0000 -0.2672
v  -0.1543 -0.0000 -0.2672
v  -0.3086 0.0000 -0.0000
v  -0.1543 0.0000 0.2672
v  0.2229 17.1466 0.2276
v  0.1543 17.1783 0.2672
v  0.1543 16.9625 0.2672
v  0.3086 17.1466 -0.0792
v  0.3086 17.1783 -0.0000
v  0.3086 16.9625 -0.0000
v  0.0857 17.1466 -0.3068
v  0.1543 17.1783 -0.2672
v  0.1543 16.9625 -0.2672
v  -0.2229 17.1466 -0.2276
v  -0.1543 17.1783 -0.2672
v  -0.1543 16.9625 -0.2672
v  -0.3086 17.1466 0.0792
v  -0.3086 17.1783 -0.0000
v  -0.3086 16.9625 -0.0000
v  -0.0857 17.1467 0.3068
v  -0.1543 17.1783 0.2672
v  -0.1543 16.9625 0.2672
v  0.0857 17.1466 0.3068
v  0.2229 17.1466 -0.2276
v  -0.0858 17.1467 -0.3068
v  -0.2229 17.1466 0.2276
v  0.3086 17.1466 0.0792
v  -0.3086 17.1466 -0.0792
v  0.1017 18.2359 -0.0000
v  0.0956 18.2359 -0.0348
v  0.0837 18.4448 -0.0304
v  0.0890 18.4448 -0.0000
v  0.0779 18.2359 -0.0654
v  0.0682 18.4448 -0.0572
v  0.0508 18.2359 -0.0881
v  0.0445 18.4448 -0.0771
v  0.0177 18.2359 -0.1001
v  0.0155 18.4448 -0.0877
v  -0.0177 18.2359 -0.1001
v  -0.0155 18.4448 -0.0877
v  -0.0508 18.2359 -0.0881
v  -0.0445 18.4448 -0.0771
v  -0.0779 18.2359 -0.0654
v  -0.0682 18.4448 -0.0572
v  -0.0956 18.2359 -0.0348
v  -0.0837 18.4448 -0.0304
v  -0.1017 18.2359 -0.0000
v  -0.0890 18.4448 -0.0000
v  -0.0956 18.2359 0.0348
v  -0.0837 18.4448 0.0304
v  -0.0779 18.2359 0.0654
v  -0.0682 18.4448 0.0572
v  -0.0508 18.2359 0.0881
v  -0.0445 18.4448 0.0771
v  -0.0177 18.2359 0.1001
v  -0.0155 18.4448 0.0877
v  0.0177 18.2359 0.1001
v  0.0155 18.4448 0.0877
v  0.0508 18.2359 0.0881
v  0.0445 18.4448 0.0771
v  0.0779 18.2359 0.0654
v  0.0682 18.4448 0.0572
v  0.0956 18.2359 0.0348
v  0.0837 18.4448 0.0304
v  0.0810 18.4665 -0.0000
v  0.0761 18.4665 -0.0277
v  0.0656 18.4818 -0.0239
v  0.0699 18.4818 -0.0000
v  0.0620 18.4665 -0.0521
v  0.0535 18.4818 -0.0449
v  0.0405 18.4665 -0.0701
v  0.0349 18.4818 -0.0605
v  0.0141 18.4665 -0.0798
v  0.0121 18.4818 -0.0688
v  -0.0141 18.4665 -0.0798
v  -0.0121 18.4818 -0.0688
v  -0.0405 18.4665 -0.0701
v  -0.0349 18.4818 -0.0605
v  -0.0620 18.4665 -0.0521
v  -0.0535 18.4818 -0.0449
v  -0.0761 18.4665 -0.0277
v  -0.0656 18.4818 -0.0239
v  -0.0810 18.4665 -0.0000
v  -0.0699 18.4818 -0.0000
v  -0.0761 18.4665 0.0277
v  -0.0656 18.4818 0.0239
v  -0.0620 18.4665 0.0521
v  -0.0535 18.4818 0.0449
v  -0.0405 18.4665 0.0701
v  -0.0349 18.4818 0.0605
v  -0.0141 18.4665 0.0798
v  -0.0121 18.4818 0.0688
v  0.0141 18.4665 0.0798
v  0.0121 18.4818 0.0688
v  0.0405 18.4665 0.0701
v  0.0349 18.4818 0.0605
v  0.0620 18.4665 0.0521
v  0.0535 18.4818 0.0449
v  0.0761 18.4665 0.0277
v  0.0656 18.4818 0.0239
v  0.0461 18.4896 -0.0186
v  0.0485 18.4897 -0.0000
v  0.0415 18.4889 -0.0346
v  0.0271 18.4896 -0.0413
v  0.0093 18.4897 -0.0462
v  -0.0093 18.4897 -0.0462
v  -0.0270 18.4896 -0.0413
v  -0.0415 18.4889 -0.0346
v  -0.0461 18.4896 -0.0186
v  -0.0485 18.4897 -0.0000
v  -0.0461 18.4896 0.0186
v  -0.0415 18.4889 0.0346
v  -0.0270 18.4896 0.0413
v  -0.0093 18.4897 0.0461
v  0.0093 18.4897 0.0461
v  0.0271 18.4896 0.0413
v  0.0415 18.4889 0.0346
v  0.0461 18.4896 0.0186
v  0.0267 18.4916 -0.0193
v  0.0267 18.4916 0.0193
v  -0.0267 18.4916 -0.0193
v  -0.0267 18.4916 0.0193
v  0.0088 18.4918 0.0204
v  -0.0088 18.4918 0.0204
v  0.0088 18.4918 -0.0204
v  -0.0088 18.4918 -0.0204
v  -0.0272 18.4918 -0.0000
v  -0.0088 18.4919 -0.0000
v  0.0088 18.4919 -0.0000
v  0.0272 18.4918 -0.0000
# 168 vertices

vn 0.7071 0.0000 0.7071
vn 0.9659 -0.0000 0.2588
vn 0.9553 0.0674 0.2878
vn 0.7269 0.0674 0.6834
vn 0.9659 -0.0000 -0.2588
vn 0.7071 -0.0000 -0.7071
vn 0.7269 0.0674 -0.6834
vn 0.9553 0.0674 -0.2878
vn 0.2588 -0.0000 -0.9659
vn -0.2588 -0.0000 -0.9659
vn -0.2284 0.0674 -0.9712
vn 0.2284 0.0674 -0.9712
vn -0.7071 -0.0000 -0.7071
vn -0.9659 0.0000 -0.2588
vn -0.9553 0.0674 -0.2878
vn -0.7269 0.0674 -0.6834
vn -0.9659 0.0000 0.2588
vn -0.7071 0.0000 0.7071
vn -0.7269 0.0674 0.6834
vn -0.9553 0.0674 0.2878
vn -0.2588 0.0000 0.9659
vn 0.2588 0.0000 0.9659
vn 0.2284 0.0674 0.9712
vn -0.2284 0.0674 0.9712
vn -0.0000 -1.0000 0.0000
vn 0.6868 0.1266 0.7157
vn 0.4971 0.1204 0.8593
vn 0.5000 0.0000 0.8660
vn 0.9632 0.1266 -0.2369
vn 0.9927 0.1204 -0.0009
vn 1.0000 -0.0000 0.0000
vn 0.2763 0.1266 -0.9527
vn 0.4956 0.1204 -0.8602
vn 0.5000 -0.0000 -0.8660
vn -0.6868 0.1266 -0.7157
vn -0.4972 0.1204 -0.8593
vn -0.5000 -0.0000 -0.8660
vn -0.9632 0.1266 0.2369
vn -0.9927 0.1204 0.0009
vn -1.0000 0.0000 -0.0000
vn -0.2765 0.1266 0.9527
vn -0.4956 0.1204 0.8601
vn -0.5000 0.0000 0.8660
vn -1.0000 0.0000 0.0000
vn 0.2762 0.1260 0.9528
vn 0.6871 0.1260 -0.7156
vn -0.2763 0.1260 -0.9528
vn -0.6870 0.1260 0.7156
vn 0.9633 0.1260 0.2372
vn -0.9633 0.1260 -0.2372
vn 0.9916 0.1291 -0.0011
vn 0.9319 0.1268 -0.3397
vn 0.9202 0.2025 -0.3349
vn 0.9793 0.2025 0.0000
vn 0.7607 0.1284 -0.6362
vn 0.7502 0.2025 -0.6295
vn 0.4948 0.1291 -0.8593
vn 0.4896 0.2025 -0.8481
vn 0.1718 0.1268 -0.9769
vn 0.1701 0.2025 -0.9644
vn -0.1706 0.1284 -0.9769
vn -0.1701 0.2025 -0.9644
vn -0.4968 0.1291 -0.8582
vn -0.4896 0.2025 -0.8481
vn -0.7602 0.1268 -0.6372
vn -0.7502 0.2025 -0.6295
vn -0.9314 0.1284 -0.3407
vn -0.9202 0.2025 -0.3349
vn -0.9916 0.1291 0.0011
vn -0.9793 0.2025 -0.0000
vn -0.9319 0.1268 0.3397
vn -0.9202 0.2025 0.3349
vn -0.7607 0.1284 0.6362
vn -0.7502 0.2025 0.6295
vn -0.4948 0.1291 0.8593
vn -0.4896 0.2025 0.8481
vn -0.1718 0.1268 0.9769
vn -0.1701 0.2025 0.9644
vn 0.1706 0.1284 0.9769
vn 0.1701 0.2025 0.9644
vn 0.4968 0.1291 0.8582
vn 0.4896 0.2025 0.8481
vn 0.7602 0.1268 0.6372
vn 0.7502 0.2025 0.6295
vn 0.9314 0.1284 0.3407
vn 0.9202 0.2025 0.3349
vn 0.8847 0.4662 0.0000
vn 0.8313 0.4662 -0.3026
vn 0.5967 0.7743 -0.2108
vn 0.6242 0.7813 0.0013
vn 0.6777 0.4662 -0.5687
vn 0.4881 0.7665 -0.4174
vn 0.4423 0.4662 -0.7662
vn 0.3082 0.7814 -0.5426
vn 0.1536 0.4662 -0.8713
vn 0.1062 0.7878 -0.6067
vn -0.1536 0.4662 -0.8713
vn -0.1045 0.7864 -0.6088
vn -0.4423 0.4662 -0.7662
vn -0.3091 0.7764 -0.5493
vn -0.6777 0.4662 -0.5687
vn -0.4958 0.7660 -0.4091
vn -0.8313 0.4662 -0.3026
vn -0.5907 0.7785 -0.2121
vn -0.8847 0.4662 -0.0000
vn -0.6242 0.7813 -0.0013
vn -0.8313 0.4662 0.3026
vn -0.5967 0.7743 0.2108
vn -0.6777 0.4662 0.5687
vn -0.4881 0.7665 0.4174
vn -0.4423 0.4662 0.7662
vn -0.3082 0.7814 0.5426
vn -0.1536 0.4662 0.8713
vn -0.1062 0.7878 0.6067
vn 0.1536 0.4662 0.8713
vn 0.1045 0.7864 0.6088
vn 0.4423 0.4662 0.7662
vn 0.3091 0.7764 0.5493
vn 0.6777 0.4662 0.5687
vn 0.4958 0.7660 0.4091
vn 0.8313 0.4662 0.3026
vn 0.5907 0.7785 0.2121
vn 0.2307 0.9706 -0.0685
vn 0.2357 0.9718 0.0023
vn 0.2178 0.9536 -0.2077
vn 0.1083 0.9703 -0.2162
vn 0.0346 0.9755 -0.2171
vn -0.0302 0.9763 -0.2144
vn -0.0992 0.9731 -0.2079
vn -0.2389 0.9540 -0.1811
vn -0.2378 0.9683 -0.0762
vn -0.2357 0.9718 -0.0023
vn -0.2307 0.9706 0.0685
vn -0.2178 0.9536 0.2077
vn -0.1083 0.9703 0.2162
vn -0.0346 0.9755 0.2171
vn 0.0302 0.9763 0.2144
vn 0.0992 0.9731 0.2079
vn 0.2389 0.9540 0.1811
vn 0.2378 0.9683 0.0762
vn 0.0544 0.9974 -0.0463
vn 0.0543 0.9975 0.0462
vn -0.0543 0.9975 -0.0462
vn -0.0544 0.9974 0.0463
vn 0.0071 0.9989 0.0458
vn -0.0071 0.9989 0.0459
vn 0.0071 0.9989 -0.0459
vn -0.0071 0.9989 -0.0458
vn -0.0544 0.9985 -0.0001
vn -0.0044 1.0000 -0.0001
vn 0.0044 1.0000 0.0001
vn 0.0544 0.9985 0.0001
# 152 vertex normals

vt 0.0505 0.0006 0.0000
vt 0.0525 0.0006 0.0000
vt 0.0525 0.9869 0.0000
vt 0.0505 0.9869 0.0000
vt 0.0709 0.0005 0.0000
vt 0.0729 0.0005 0.0000
vt 0.0729 0.9869 0.0000
vt 0.0709 0.9869 0.0000
vt 0.0913 0.0005 0.0000
vt 0.0933 0.0005 0.0000
vt 0.0933 0.9869 0.0000
vt 0.0913 0.9869 0.0000
vt 0.1118 0.0005 0.0000
vt 0.1137 0.0005 0.0000
vt 0.1137 0.9869 0.0000
vt 0.1118 0.9869 0.0000
vt 0.0097 0.0006 0.0000
vt 0.0117 0.0006 0.0000
vt 0.0117 0.9869 0.0000
vt 0.0097 0.9869 0.0000
vt 0.0301 0.0006 0.0000
vt 0.0321 0.0006 0.0000
vt 0.0321 0.9869 0.0000
vt 0.0301 0.9869 0.0000
vt 0.1399 0.0214 0.0000
vt 0.1413 0.0170 0.0000
vt 0.1474 0.0238 0.0000
vt 0.1429 0.0248 0.0000
vt 0.1528 0.0298 0.0000
vt 0.1404 0.0324 0.0000
vt 0.1320 0.0230 0.0000
vt 0.1359 0.0110 0.0000
vt 0.1483 0.0084 0.0000
vt 0.1458 0.0161 0.0000
vt 0.1567 0.0178 0.0000
vt 0.1488 0.0195 0.0000
vt 0.1475 0.0403 0.0000
vt 0.1387 0.0375 0.0000
vt 0.1300 0.0346 0.0000
vt 0.1494 0.0399 0.0000
vt 0.1632 0.0277 0.0000
vt 0.1563 0.0338 0.0000
vt 0.1638 0.0258 0.0000
vt 0.1600 0.0077 0.0000
vt 0.1619 0.0168 0.0000
vt 0.1587 0.0063 0.0000
vt 0.1412 0.0005 0.0000
vt 0.1500 0.0034 0.0000
vt 0.1393 0.0009 0.0000
vt 0.1255 0.0132 0.0000
vt 0.1324 0.0070 0.0000
vt 0.1287 0.0331 0.0000
vt 0.1268 0.0241 0.0000
vt 0.1249 0.0151 0.0000
vt 0.0459 0.9976 0.0000
vt 0.0413 0.9995 0.0000
vt 0.0413 0.9869 0.0000
vt 0.0663 0.9976 0.0000
vt 0.0617 0.9995 0.0000
vt 0.0617 0.9869 0.0000
vt 0.0868 0.9976 0.0000
vt 0.0821 0.9994 0.0000
vt 0.0821 0.9869 0.0000
vt 0.1072 0.9976 0.0000
vt 0.1025 0.9994 0.0000
vt 0.1025 0.9869 0.0000
vt 0.0051 0.9977 0.0000
vt 0.0005 0.9995 0.0000
vt 0.0005 0.9869 0.0000
vt 0.0255 0.9977 0.0000
vt 0.0209 0.9995 0.0000
vt 0.0209 0.9869 0.0000
vt 0.0617 0.0005 0.0000
vt 0.0413 0.0006 0.0000
vt 0.0821 0.0005 0.0000
vt 0.1025 0.0005 0.0000
vt 0.1230 0.0005 0.0000
vt 0.1230 0.9869 0.0000
vt 0.0209 0.0006 0.0000
vt 0.0005 0.0006 0.0000
vt 0.0367 0.9976 0.0000
vt 0.0775 0.9976 0.0000
vt 0.0979 0.9976 0.0000
vt 0.0163 0.9977 0.0000
vt 0.0571 0.9976 0.0000
vt 0.1230 0.9994 0.0000
vt 0.1183 0.9976 0.0000
vt 0.1550 0.9844 0.0000
vt 0.1483 0.9939 0.0000
vt 0.1464 0.9934 0.0000
vt 0.1454 0.9817 0.0000
vt 0.1368 0.9786 0.0000
vt 0.1284 0.9867 0.0000
vt 0.1266 0.9858 0.0000
vt 0.1278 0.9742 0.0000
vt 0.2275 0.9738 0.0000
vt 0.2288 0.9854 0.0000
vt 0.2271 0.9863 0.0000
vt 0.2186 0.9783 0.0000
vt 0.2100 0.9815 0.0000
vt 0.2091 0.9931 0.0000
vt 0.2072 0.9936 0.0000
vt 0.2004 0.9841 0.0000
vt 0.1914 0.9859 0.0000
vt 0.1874 0.9971 0.0000
vt 0.1855 0.9971 0.0000
vt 0.1815 0.9864 0.0000
vt 0.1739 0.9864 0.0000
vt 0.1700 0.9971 0.0000
vt 0.1680 0.9971 0.0000
vt 0.1640 0.9860 0.0000
vt 0.1777 0.9219 0.0000
vt 0.1752 0.9220 0.0000
vt 0.1757 0.9098 0.0000
vt 0.1773 0.9098 0.0000
vt 0.1730 0.9219 0.0000
vt 0.1741 0.9097 0.0000
vt 0.1708 0.9216 0.0000
vt 0.1725 0.9095 0.0000
vt 0.1687 0.9212 0.0000
vt 0.1709 0.9092 0.0000
vt 0.1666 0.9207 0.0000
vt 0.1694 0.9088 0.0000
vt 0.1646 0.9201 0.0000
vt 0.1678 0.9083 0.0000
vt 0.1626 0.9194 0.0000
vt 0.1662 0.9077 0.0000
vt 0.1606 0.9186 0.0000
vt 0.1646 0.9071 0.0000
vt 0.1588 0.9177 0.0000
vt 0.1630 0.9064 0.0000
vt 0.1964 0.9174 0.0000
vt 0.1946 0.9183 0.0000
vt 0.1903 0.9069 0.0000
vt 0.1920 0.9062 0.0000
vt 0.1927 0.9191 0.0000
vt 0.1887 0.9076 0.0000
vt 0.1907 0.9198 0.0000
vt 0.1872 0.9082 0.0000
vt 0.1887 0.9205 0.0000
vt 0.1856 0.9087 0.0000
vt 0.1866 0.9210 0.0000
vt 0.1840 0.9091 0.0000
vt 0.1845 0.9214 0.0000
vt 0.1824 0.9094 0.0000
vt 0.1824 0.9217 0.0000
vt 0.1807 0.9097 0.0000
vt 0.1802 0.9219 0.0000
vt 0.1791 0.9098 0.0000
vt 0.1388 0.0434 0.0000
vt 0.1384 0.0454 0.0000
vt 0.1377 0.0451 0.0000
vt 0.1380 0.0434 0.0000
vt 0.1374 0.0471 0.0000
vt 0.1368 0.0466 0.0000
vt 0.1359 0.0484 0.0000
vt 0.1355 0.0477 0.0000
vt 0.1340 0.0491 0.0000
vt 0.1339 0.0483 0.0000
vt 0.1321 0.0491 0.0000
vt 0.1322 0.0483 0.0000
vt 0.1302 0.0484 0.0000
vt 0.1306 0.0477 0.0000
vt 0.1287 0.0471 0.0000
vt 0.1293 0.0466 0.0000
vt 0.1277 0.0454 0.0000
vt 0.1284 0.0451 0.0000
vt 0.1273 0.0434 0.0000
vt 0.1281 0.0434 0.0000
vt 0.1277 0.0414 0.0000
vt 0.1284 0.0417 0.0000
vt 0.1287 0.0397 0.0000
vt 0.1293 0.0402 0.0000
vt 0.1302 0.0384 0.0000
vt 0.1306 0.0390 0.0000
vt 0.1321 0.0377 0.0000
vt 0.1322 0.0384 0.0000
vt 0.1340 0.0377 0.0000
vt 0.1339 0.0384 0.0000
vt 0.1359 0.0384 0.0000
vt 0.1355 0.0390 0.0000
vt 0.1374 0.0397 0.0000
vt 0.1368 0.0402 0.0000
vt 0.1384 0.0414 0.0000
vt 0.1377 0.0417 0.0000
vt 0.1363 0.0447 0.0000
vt 0.1365 0.0434 0.0000
vt 0.1360 0.0459 0.0000
vt 0.1350 0.0464 0.0000
vt 0.1337 0.0467 0.0000
vt 0.1324 0.0467 0.0000
vt 0.1311 0.0464 0.0000
vt 0.1301 0.0459 0.0000
vt 0.1298 0.0447 0.0000
vt 0.1296 0.0434 0.0000
vt 0.1298 0.0421 0.0000
vt 0.1301 0.0409 0.0000
vt 0.1311 0.0404 0.0000
vt 0.1324 0.0401 0.0000
vt 0.1337 0.0401 0.0000
vt 0.1350 0.0404 0.0000
vt 0.1360 0.0409 0.0000
vt 0.1363 0.0421 0.0000
vt 0.1349 0.0448 0.0000
vt 0.1349 0.0420 0.0000
vt 0.1312 0.0448 0.0000
vt 0.1312 0.0420 0.0000
vt 0.1337 0.0419 0.0000
vt 0.1324 0.0419 0.0000
vt 0.1337 0.0449 0.0000
vt 0.1324 0.0449 0.0000
vt 0.1311 0.0434 0.0000
vt 0.1324 0.0434 0.0000
vt 0.1337 0.0434 0.0000
vt 0.1350 0.0434 0.0000
vt 0.1390 0.0456 0.0000
vt 0.1394 0.0434 0.0000
vt 0.1379 0.0475 0.0000
vt 0.1362 0.0489 0.0000
vt 0.1341 0.0497 0.0000
vt 0.1320 0.0497 0.0000
vt 0.1299 0.0489 0.0000
vt 0.1282 0.0475 0.0000
vt 0.1271 0.0456 0.0000
vt 0.1267 0.0434 0.0000
vt 0.1271 0.0412 0.0000
vt 0.1282 0.0393 0.0000
vt 0.1299 0.0379 0.0000
vt 0.1320 0.0371 0.0000
vt 0.1341 0.0371 0.0000
vt 0.1362 0.0379 0.0000
vt 0.1379 0.0393 0.0000
vt 0.1390 0.0412 0.0000
vt 0.1777 0.9846 0.0000
vt 0.1598 0.9833 0.0000
vt 0.1418 0.9785 0.0000
vt 0.1249 0.9703 0.0000
vt 0.2304 0.9699 0.0000
vt 0.2136 0.9782 0.0000
vt 0.1956 0.9832 0.0000
# 240 texture coords

g CRAYON_01
usemtl wire_024027034
s 1
f 1/1/1 2/2/2 3/3/3 4/4/4 
f 5/5/5 6/6/6 7/7/7 8/8/8 
f 9/9/9 10/10/10 11/11/11 12/12/12 
f 13/13/13 14/14/14 15/15/15 16/16/16 
f 17/17/17 18/18/18 19/19/19 20/20/20 
f 21/21/21 22/22/22 23/23/23 24/24/24 
s 2
f 25/25/25 26/26/25 27/27/25 28/28/25 
f 29/29/25 30/30/25 28/28/25 27/27/25 
f 30/30/25 31/31/25 25/25/25 28/28/25 
f 31/31/25 32/32/25 26/26/25 25/25/25 
f 32/32/25 33/33/25 34/34/25 26/26/25 
f 33/33/25 35/35/25 36/36/25 34/34/25 
f 35/35/25 29/29/25 27/27/25 36/36/25 
f 1/37/25 37/38/25 22/39/25 30/30/25 
f 2/40/25 29/29/25 5/41/25 38/42/25 
f 6/43/25 35/35/25 9/44/25 39/45/25 
f 10/46/25 33/33/25 13/47/25 40/48/25 
f 14/49/25 32/32/25 17/50/25 41/51/25 
f 21/52/25 42/53/25 18/54/25 31/31/25 
s 1
f 4/4/4 43/55/26 44/56/27 45/57/28 
f 8/8/8 46/58/29 47/59/30 48/60/31 
f 12/12/12 49/61/32 50/62/33 51/63/34 
f 16/16/16 52/64/35 53/65/36 54/66/37 
f 20/20/20 55/67/38 56/68/39 57/69/40 
f 24/24/24 58/70/41 59/71/42 60/72/43 
f 2/2/2 38/73/31 48/60/31 3/3/3 
f 4/4/4 45/57/28 37/74/28 1/1/1 
f 6/6/6 39/75/34 51/63/34 7/7/7 
f 10/10/10 40/76/37 54/66/37 11/11/11 
f 14/14/14 41/77/44 57/78/40 15/15/15 
f 18/18/18 42/79/43 60/72/43 19/19/19 
f 38/73/31 5/5/5 8/8/8 48/60/31 
f 45/57/28 23/23/23 22/22/22 37/74/28 
f 39/75/34 9/9/9 12/12/12 51/63/34 
f 40/76/37 13/13/13 16/16/16 54/66/37 
f 41/80/44 17/17/17 20/20/20 57/69/40 
f 42/79/43 21/21/21 24/24/24 60/72/43 
f 44/56/27 61/81/45 23/23/23 45/57/28 
f 50/62/33 62/82/46 7/7/7 51/63/34 
f 53/65/36 63/83/47 11/11/11 54/66/37 
f 59/71/42 64/84/48 19/19/19 60/72/43 
f 47/59/30 65/85/49 3/3/3 48/60/31 
f 56/86/39 66/87/50 15/15/15 57/78/40 
f 49/88/32 12/89/12 11/90/11 63/91/47 
f 52/92/35 16/93/16 15/94/15 66/95/50 
f 55/96/38 20/97/20 19/98/19 64/99/48 
f 58/100/41 24/101/24 23/102/23 61/103/45 
f 43/104/26 4/105/4 3/106/3 65/107/49 
f 46/108/29 8/109/8 7/110/7 62/111/46 
f 67/112/51 68/113/52 69/114/53 70/115/54 
f 68/113/52 71/116/55 72/117/56 69/114/53 
f 71/116/55 73/118/57 74/119/58 72/117/56 
f 73/118/57 75/120/59 76/121/60 74/119/58 
f 75/120/59 77/122/61 78/123/62 76/121/60 
f 77/122/61 79/124/63 80/125/64 78/123/62 
f 79/124/63 81/126/65 82/127/66 80/125/64 
f 81/126/65 83/128/67 84/129/68 82/127/66 
f 83/128/67 85/130/69 86/131/70 84/129/68 
f 85/132/69 87/133/71 88/134/72 86/135/70 
f 87/133/71 89/136/73 90/137/74 88/134/72 
f 89/136/73 91/138/75 92/139/76 90/137/74 
f 91/138/75 93/140/77 94/141/78 92/139/76 
f 93/140/77 95/142/79 96/143/80 94/141/78 
f 95/142/79 97/144/81 98/145/82 96/143/80 
f 97/144/81 99/146/83 100/147/84 98/145/82 
f 99/146/83 101/148/85 102/149/86 100/147/84 
f 101/148/85 67/112/51 70/115/54 102/149/86 
f 103/150/87 104/151/88 105/152/89 106/153/90 
f 104/151/88 107/154/91 108/155/92 105/152/89 
f 107/154/91 109/156/93 110/157/94 108/155/92 
f 109/156/93 111/158/95 112/159/96 110/157/94 
f 111/158/95 113/160/97 114/161/98 112/159/96 
f 113/160/97 115/162/99 116/163/100 114/161/98 
f 115/162/99 117/164/101 118/165/102 116/163/100 
f 117/164/101 119/166/103 120/167/104 118/165/102 
f 119/166/103 121/168/105 122/169/106 120/167/104 
f 121/168/105 123/170/107 124/171/108 122/169/106 
f 123/170/107 125/172/109 126/173/110 124/171/108 
f 125/172/109 127/174/111 128/175/112 126/173/110 
f 127/174/111 129/176/113 130/177/114 128/175/112 
f 129/176/113 131/178/115 132/179/116 130/177/114 
f 131/178/115 133/180/117 134/181/118 132/179/116 
f 133/180/117 135/182/119 136/183/120 134/181/118 
f 135/182/119 137/184/121 138/185/122 136/183/120 
f 137/184/121 103/150/87 106/153/90 138/185/122 
f 106/153/90 105/152/89 139/186/123 140/187/124 
f 105/152/89 108/155/92 141/188/125 139/186/123 
f 108/155/92 110/157/94 142/189/126 141/188/125 
f 110/157/94 112/159/96 143/190/127 142/189/126 
f 112/159/96 114/161/98 144/191/128 143/190/127 
f 114/161/98 116/163/100 145/192/129 144/191/128 
f 116/163/100 118/165/102 146/193/130 145/192/129 
f 118/165/102 120/167/104 147/194/131 146/193/130 
f 120/167/104 122/169/106 148/195/132 147/194/131 
f 122/169/106 124/171/108 149/196/133 148/195/132 
f 124/171/108 126/173/110 150/197/134 149/196/133 
f 126/173/110 128/175/112 151/198/135 150/197/134 
f 128/175/112 130/177/114 152/199/136 151/198/135 
f 130/177/114 132/179/116 153/200/137 152/199/136 
f 132/179/116 134/181/118 154/201/138 153/200/137 
f 134/181/118 136/183/120 155/202/139 154/201/138 
f 136/183/120 138/185/122 156/203/140 155/202/139 
f 138/185/122 106/153/90 140/187/124 156/203/140 
f 139/186/123 141/188/125 142/189/126 157/204/141 
f 154/201/138 155/202/139 156/203/140 158/205/142 
f 145/192/129 146/193/130 147/194/131 159/206/143 
f 149/196/133 150/197/134 151/198/135 160/207/144 
f 152/199/136 153/200/137 161/208/145 162/209/146 
f 163/210/147 143/190/127 144/191/128 164/211/148 
f 147/194/131 148/195/132 165/212/149 159/206/143 
f 164/211/148 166/213/150 167/214/151 163/210/147 
f 168/215/152 140/187/124 139/186/123 157/204/141 
f 156/203/140 140/187/124 168/215/152 158/205/142 
f 161/208/145 167/214/151 166/213/150 162/209/146 
f 165/212/149 148/195/132 149/196/133 160/207/144 
f 151/198/135 152/199/136 162/209/146 160/207/144 
f 160/207/144 162/209/146 166/213/150 165/212/149 
f 165/212/149 166/213/150 164/211/148 159/206/143 
f 159/206/143 164/211/148 144/191/128 145/192/129 
f 142/189/126 143/190/127 163/210/147 157/204/141 
f 157/204/141 163/210/147 167/214/151 168/215/152 
f 168/215/152 167/214/151 161/208/145 158/205/142 
f 158/205/142 161/208/145 153/200/137 154/201/138 
f 69/216/53 104/151/88 103/150/87 70/217/54 
f 72/218/56 107/154/91 104/151/88 69/216/53 
f 74/219/58 109/156/93 107/154/91 72/218/56 
f 76/220/60 111/158/95 109/156/93 74/219/58 
f 78/221/62 113/160/97 111/158/95 76/220/60 
f 80/222/64 115/162/99 113/160/97 78/221/62 
f 82/223/66 117/164/101 115/162/99 80/222/64 
f 84/224/68 119/166/103 117/164/101 82/223/66 
f 86/225/70 121/168/105 119/166/103 84/224/68 
f 88/226/72 123/170/107 121/168/105 86/225/70 
f 90/227/74 125/172/109 123/170/107 88/226/72 
f 92/228/76 127/174/111 125/172/109 90/227/74 
f 94/229/78 129/176/113 127/174/111 92/228/76 
f 96/230/80 131/178/115 129/176/113 94/229/78 
f 98/231/82 133/180/117 131/178/115 96/230/80 
f 100/232/84 135/182/119 133/180/117 98/231/82 
f 102/233/86 137/184/121 135/182/119 100/232/84 
f 70/217/54 103/150/87 137/184/121 102/233/86 
f 47/234/30 46/108/29 68/113/52 67/112/51 
f 46/108/29 62/111/46 71/116/55 68/113/52 
f 62/111/46 50/235/33 73/118/57 71/116/55 
f 50/235/33 49/88/32 75/120/59 73/118/57 
f 49/88/32 63/91/47 77/122/61 75/120/59 
f 63/91/47 53/236/36 79/124/63 77/122/61 
f 53/236/36 52/92/35 81/126/65 79/124/63 
f 52/92/35 66/95/50 83/128/67 81/126/65 
f 66/95/50 56/237/39 85/130/69 83/128/67 
f 56/238/39 55/96/38 87/133/71 85/132/69 
f 55/96/38 64/99/48 89/136/73 87/133/71 
f 64/99/48 59/239/42 91/138/75 89/136/73 
f 59/239/42 58/100/41 93/140/77 91/138/75 
f 58/100/41 61/103/45 95/142/79 93/140/77 
f 61/103/45 44/240/27 97/144/81 95/142/79 
f 44/240/27 43/104/26 99/146/83 97/144/81 
f 43/104/26 65/107/49 101/148/85 99/146/83 
f 65/107/49 47/234/30 67/112/51 101/148/85 
s 2
f 29/29/25 2/40/25 1/37/25 30/30/25 
f 30/30/25 22/39/25 21/52/25 31/31/25 
f 31/31/25 18/54/25 17/50/25 32/32/25 
f 32/32/25 14/49/25 13/47/25 33/33/25 
f 33/33/25 10/46/25 9/44/25 35/35/25 
f 35/35/25 6/43/25 5/41/25 29/29/25 
f 26/26/25 34/34/25 36/36/25 27/27/25 
# 166 polygons

