# Blender v2.83.0 OBJ File: '1.blend'
# www.blender.org
mtllib Cuneo_Monument_A.mtl
o STLEXP_Object01
v -3.775604 5.526780 1.554660
v -4.441887 5.526780 1.554660
v -4.441887 5.526780 -2.220944
v -3.775604 5.526780 -2.220944
v -4.441887 8.881887 1.554660
v -4.441887 8.881887 -2.220944
v -3.775604 8.881887 1.554660
v -3.775604 8.881887 -2.220944
v 3.775604 8.881887 1.554660
v -4.441887 8.881887 2.220943
v 3.775604 8.881887 2.220943
v 0.707162 4.128096 1.554661
v 0.707162 4.128096 2.220943
v -3.775604 4.128096 1.554661
v -3.775604 4.128096 2.220943
v -3.775604 5.131875 1.554661
v -3.775604 5.131875 2.220943
v -4.441887 5.131875 2.220943
v -3.942507 5.131875 1.554661
v -3.942507 5.522689 1.554661
v -4.441887 5.522689 1.554661
v -4.441887 5.131875 2.054040
v -4.441887 5.522689 2.054040
v -3.775603 5.131875 -2.220943
v -4.441886 5.131875 -2.220943
v -4.441886 5.131875 2.220943
v -3.775603 5.131875 2.220943
v -3.775603 4.128092 -2.220943
v -3.775603 4.128096 2.220943
v 0.707164 4.128096 2.220943
v 0.707164 4.128092 -1.606551
v 0.707164 4.128092 -2.220943
v 4.441887 8.881887 -2.220944
v 3.775604 8.881887 -2.220944
v 4.441887 8.881887 2.220943
v -4.441886 -0.001887 -2.220943
v 4.441887 -0.001887 -2.220943
v 4.441887 -0.001886 2.220944
v -4.441886 -0.001886 2.220944
v 0.707166 3.852760 -2.220943
v 0.973931 3.852760 -2.220943
v 0.973931 3.577428 -2.220943
v 1.240697 3.577428 -2.220943
v 1.240697 3.302096 -2.220943
v 1.507462 3.302096 -2.220943
v 1.507462 3.026764 -2.220943
v 1.774228 3.026764 -2.220943
v 1.774228 2.751432 -2.220943
v 2.040995 2.751432 -2.220943
v 2.038960 2.473461 -2.220943
v 2.307761 2.476100 -2.220943
v 2.307761 2.200770 -2.220943
v 2.574527 2.200770 -2.220943
v 2.574527 1.925438 -2.220943
v 2.841292 1.925438 -2.220943
v 2.841292 1.650106 -2.220943
v 3.108058 1.650106 -2.220943
v 3.108058 1.374774 -2.220943
v 3.374823 1.374774 -2.220943
v 3.374823 1.099442 -2.220943
v 3.641591 1.099442 -2.220943
v 3.641591 0.824110 -2.220943
v 3.908355 0.824110 -2.220943
v 3.908355 0.548778 -2.220943
v 4.175122 0.548778 -2.220943
v 4.175122 0.273444 -2.220943
v 4.441887 0.273446 -2.220943
v 4.441887 0.264999 -2.087500
v 4.441887 0.273444 -2.220926
v 4.441887 0.273446 2.128175
v 4.441887 2.311064 2.128175
v 4.441887 2.311063 -2.220943
v 4.094758 2.311063 -2.220943
v 1.375765 5.157188 -2.220943
v 1.372701 5.159177 -2.220943
v 1.372701 5.159177 -0.937951
v 1.375765 5.157188 -0.937951
v 4.094758 2.311064 1.781044
v 4.175122 0.548778 1.861408
v 3.908355 0.548778 1.594640
v 3.908355 0.824110 1.594640
v 3.641591 0.824110 1.327876
v 3.641591 1.099442 1.327876
v 3.374823 1.099442 1.061110
v 3.374823 1.374774 1.061110
v 3.108058 1.374774 0.794344
v 3.108058 1.650106 0.794344
v 2.841292 1.650106 0.527578
v 2.841292 1.925438 0.527578
v 2.574527 1.925438 0.260811
v 2.574527 2.200770 0.260811
v 4.175122 0.273446 1.861408
v 2.307761 2.200770 -0.005954
v 2.307761 2.476100 -0.005954
v 2.038960 2.473461 -0.274754
v 2.040995 2.751432 -0.272720
v 1.774228 2.751432 -0.539487
v 1.774228 3.026764 -0.539487
v 1.507462 3.026764 -0.806252
v 1.507462 3.302096 -0.806252
v 1.240697 3.302096 -1.073018
v 1.240697 3.577428 -1.073018
v 0.973931 3.577428 -1.339785
v 0.973931 3.852760 -1.339785
v 0.707166 3.852760 -1.606551
vn -0.0000 -1.0000 0.0000
vn -1.0000 0.0000 0.0000
vn 0.0000 1.0000 0.0000
vn 1.0000 -0.0000 0.0000
vn 0.0000 0.0000 1.0000
vn -0.0000 0.0000 -1.0000
vn 0.8402 -0.5423 0.0000
vn -0.7071 0.0000 -0.7071
vn -0.8402 0.5423 0.0000
vn -0.5445 -0.8388 0.0000
vn -0.6381 -0.7700 0.0000
vn -0.7231 -0.6908 0.0000
vn 0.6976 -0.0182 -0.7163
vn 0.7071 0.0000 -0.7071
vn 0.6910 -0.0303 -0.7223
vn -0.0000 0.9988 0.0496
vn 0.0000 0.9987 0.0501
vn -0.0098 1.0000 0.0000
vn 1.0000 -0.0073 0.0000
vn 0.2605 0.4012 -0.8782
vn -0.0000 0.9912 0.1322
usemtl diffuse_Black.002
s 1
f 1//1 2//1 3//1 4//1
f 2//2 5//2 6//2 3//2
f 5//3 7//3 8//3 6//3
f 7//4 1//4 4//4 8//4
f 1//5 7//5 5//5 2//5
f 6//6 8//6 4//6 3//6
f 9//3 5//3 10//3 11//3
f 12//7 9//7 11//7 13//7
f 14//1 12//1 13//1 15//1
f 16//2 14//2 15//2 17//2
f 17//5 15//5 13//5 11//5 10//5 18//5
f 12//6 14//6 16//6 19//6 20//6 21//6 5//6 9//6
f 22//1 19//1 16//1 17//1 18//1
f 5//2 21//2 23//2 22//2 18//2 10//2
f 22//8 23//8 20//8 19//8
f 24//3 25//3 26//3 27//3
f 28//4 24//4 27//4 29//4
f 29//3 30//3 31//3 32//3 28//3
f 33//3 34//3 11//3 35//3
f 36//1 37//1 38//1 39//1
f 36//2 39//2 26//2 25//2
f 11//5 30//5 29//5 27//5 26//5 39//5 38//5 35//5
f 28//6 32//6 40//6 41//6 42//6 43//6 44//6 45//6 46//6 47//6 48//6 49//6 50//6 51//6 52//6 53//6 54//6 55//6 56//6 57//6 58//6 59//6 60//6 61//6 62//6 63//6 64//6 65//6 66//6 67//6 37//6 36//6 25//6 24//6
f 33//4 35//4 38//4 37//4 68//4 69//4 70//4 71//4 72//4
f 34//6 33//6 72//6 73//6 74//6 75//6
f 34//9 75//9 76//9 11//9
f 75//10 74//11 77//11 76//10
f 73//12 78//12 77//11 74//11
f 72//1 71//1 78//1 73//1
f 79//13 80//14 81//15 82//14 83//13 84//14 85//14 86//14 87//14 88//14 89//14 90//14 91//14 71//14 70//14 92//14
f 92//3 70//3 69//16 66//17
f 66//4 65//4 79//4 92//4
f 65//3 64//3 80//3 79//3
f 80//4 64//4 63//4 81//4
f 63//3 62//3 82//3 81//3
f 82//4 62//4 61//4 83//4
f 61//3 60//3 84//3 83//3
f 84//4 60//4 59//4 85//4
f 59//3 58//3 86//3 85//3
f 86//4 58//4 57//4 87//4
f 57//3 56//3 88//3 87//3
f 88//4 56//4 55//4 89//4
f 55//3 54//3 90//3 89//3
f 54//4 53//4 91//4 90//4
f 53//3 52//3 93//3 91//3
f 93//4 52//4 51//4 94//4
f 51//18 50//18 95//18 94//18
f 95//19 50//19 49//19 96//19
f 49//3 48//3 97//3 96//3
f 97//4 48//4 47//4 98//4
f 47//3 46//3 99//3 98//3
f 46//4 45//4 100//4 99//4
f 45//3 44//3 101//3 100//3
f 44//4 43//4 102//4 101//4
f 43//3 42//3 103//3 102//3
f 42//4 41//4 104//4 103//4
f 41//3 40//3 105//3 104//3
f 32//4 31//4 105//4 40//4
f 100//14 78//14 98//14 99//14
f 78//14 91//14 93//14 94//14 95//14 96//14 97//14 98//14
f 100//14 101//14 102//14 78//14
f 23//1 21//1 20//1
f 78//14 71//14 91//14
f 105//14 31//14 104//14
f 77//14 78//14 31//14
f 31//20 76//20 77//20
f 30//9 76//9 31//9
f 11//9 76//9 30//9
f 66//17 69//16 67//21
f 78//14 104//14 31//14
f 104//14 102//14 103//14
f 78//14 102//14 104//14
