# Blender v2.83.0 OBJ File: '1.blend'
# www.blender.org
mtllib Milan_German_Opposition_Monument.mtl
o STLEXP_Object01_STLEXP_Object01.007
v -4.588723 9.114747 -4.001606
v -4.588723 9.114747 -4.160267
v -4.588725 2.546540 -4.160267
v -4.588725 2.546540 -2.078850
v -4.588725 2.546548 -2.078850
v 3.731794 9.114747 -4.160266
v 3.731797 2.546540 -4.160266
v 3.731797 2.546540 -1.400260
v 3.731794 0.794231 -1.400260
v -2.708412 0.794231 -1.400261
v -2.708412 2.546540 -1.400261
v -2.708412 2.546547 -0.162503
v 3.731796 2.546540 -0.162499
v 3.731794 9.114747 -4.001605
v 3.731792 0.794231 -0.162499
v -2.708412 2.546540 -0.162500
v -2.708413 0.794231 -0.162500
v -3.965702 2.546548 -0.162503
v -2.708412 2.546546 -2.078850
v -2.708412 2.546539 -2.078850
vn -0.9941 0.0304 0.1039
vn -1.0000 0.0000 -0.0000
vn 0.0000 0.0000 -1.0000
vn -0.0000 0.5046 0.8633
vn 0.0000 0.4889 0.8724
vn -0.0000 0.4857 0.8741
vn 0.0000 1.0000 0.0000
vn -0.0000 0.0000 1.0000
vn -0.0000 -1.0000 -0.0000
vn -0.9471 0.0901 0.3079
vn 1.0000 -0.0000 0.0000
vn -0.0000 0.4572 0.8894
usemtl diffuse_Black.003
s 1
f 1//1 2//2 3//2 4//2 5//1
f 2//3 6//3 7//3 3//3
f 8//3 9//3 10//3 11//3
f 1//4 12//5 13//6 14//4
f 1//7 14//7 6//7 2//7
f 15//8 13//8 16//8 17//8
f 9//9 15//9 17//9 10//9
f 12//9 18//9 5//9 19//9
f 11//2 10//2 17//2 16//2 12//2 19//2 20//2
f 4//8 20//8 19//8 5//8
f 3//9 7//9 8//9
f 8//9 11//9 20//9
f 3//9 8//9 20//9
f 4//9 3//9 20//9
f 18//10 1//1 5//1
f 15//11 9//11 8//11
f 8//11 7//11 6//11
f 15//11 8//11 6//11
f 15//11 6//11 14//11
f 15//11 14//11 13//11
f 1//4 18//4 12//5
f 12//5 16//12 13//6
o STLEXP_Object01.002
v -2.708427 0.794232 0.000018
v -2.708427 2.546540 0.000018
v -4.588745 2.546540 0.000017
v -4.588745 9.114747 0.000017
v -4.416720 9.114747 0.000017
v -0.116155 2.546541 0.000018
v -0.116159 0.794233 0.000018
v -0.116157 0.794233 1.184419
v -2.708427 0.794232 1.184419
v -4.416720 9.114747 4.160276
v -4.588746 9.114747 4.160276
v -4.588746 2.546540 4.160276
v -2.733024 2.546540 3.894732
v -2.708427 2.546540 1.184419
v -2.733023 2.546540 1.184419
v -2.733024 2.842444 3.894732
v -2.733023 2.842443 1.291476
v -0.309219 2.842443 1.291477
v -0.116155 2.546541 1.184419
v -0.309222 2.842443 3.889886
vn 0.0000 -0.0000 -1.0000
vn 0.0000 -1.0000 0.0000
vn 0.0000 1.0000 0.0000
vn -1.0000 0.0000 -0.0000
vn 1.0000 0.0000 0.0000
vn -0.0000 -0.3402 0.9403
vn -0.0000 -0.2299 0.9732
vn -0.0000 -0.1727 0.9850
vn -0.0000 0.0000 1.0000
vn 0.8366 0.5478 0.0000
vn 0.8367 0.5477 -0.0007
vn 0.8368 0.5476 -0.0017
vn 0.8367 0.5476 -0.0018
vn 0.0482 -0.0152 0.9987
vn 0.0020 -0.0418 0.9991
vn 0.0955 -0.0152 0.9953
vn 0.1419 -0.0019 0.9899
vn 0.1417 0.0000 0.9899
usemtl diffuse_Black.003
s 1
f 21//13 22//13 23//13 24//13 25//13 26//13 27//13
f 21//14 27//14 28//14 29//14
f 30//15 25//15 24//15 31//15
f 31//16 24//16 23//16 32//16
f 33//14 23//14 22//14 34//14 35//14
f 22//16 21//16 29//16 34//16
f 36//17 33//17 35//17 37//17
f 38//18 37//18 35//18 34//19 39//20
f 28//21 39//20 34//19 29//21
f 27//17 26//17 28//17
f 39//17 28//17 26//17
f 26//22 25//23 39//24
f 39//24 25//23 38//25
f 38//25 25//23 40//22
f 40//22 25//23 30//22
f 31//21 32//21 30//26
f 40//27 30//26 36//28
f 30//26 32//29 36//28
f 36//28 32//29 33//30
f 32//14 23//14 33//14
f 38//14 40//14 37//14
f 36//14 37//14 40//14
o STLEXP_Object01.003
v 4.588745 0.126635 4.160260
v 4.588745 -0.014746 4.160260
v 4.588746 -0.014747 -4.160258
v 4.588746 0.126634 -4.160258
v -4.588742 -0.014745 4.160258
v -4.588742 0.794211 4.160258
v -4.588741 0.794211 -4.160260
v -4.588741 -0.014745 -4.160260
v 3.731775 0.794211 4.160260
v 3.731777 0.794211 -4.160259
v 3.731779 0.672988 4.160260
v 3.731781 0.672987 -4.160259
v 3.918941 0.672988 4.160260
v 3.918941 0.531307 4.160260
v 3.918943 0.531305 -4.160259
v 3.918943 0.672988 -4.160259
v 4.077904 0.531307 4.160260
v 4.077900 0.396342 4.160260
v 4.077901 0.396339 -4.160259
v 4.077905 0.531305 -4.160259
v 4.260347 0.396341 4.160260
v 4.260348 0.396338 -4.160259
v 4.260345 0.261450 4.160260
v 4.260346 0.261450 -4.160259
v 4.442799 0.261449 4.160260
v 4.442800 0.261449 -4.160258
v 4.442799 0.126634 4.160260
v 4.442800 0.126634 -4.160258
vn 1.0000 0.0000 0.0000
vn -1.0000 0.0000 -0.0000
vn 0.0000 1.0000 0.0000
vn -0.0000 0.0000 1.0000
vn 0.0000 -0.0000 -1.0000
vn -0.0000 -1.0000 0.0000
usemtl diffuse_Black.003
s 1
f 41//31 42//31 43//31 44//31
f 45//32 46//32 47//32 48//32
f 46//33 49//33 50//33 47//33
f 49//31 51//31 52//31 50//31
f 53//31 54//31 55//31 56//31
f 57//31 58//31 59//31 60//31
f 58//33 61//33 62//33 59//33
f 61//31 63//31 64//31 62//31
f 63//33 65//33 66//33 64//33
f 65//31 67//31 68//31 66//31
f 67//34 65//34 63//34 61//34 58//34 57//34 54//34 53//34 51//34 49//34 46//34 45//34 42//34 41//34
f 64//35 66//35 68//35 44//35 43//35 48//35
f 59//35 62//35 64//35 48//35 47//35 50//35 52//35 56//35 55//35 60//35
f 42//36 45//36 48//36
f 42//36 48//36 43//36
f 51//33 53//33 56//33
f 51//33 56//33 52//33
f 54//33 57//33 60//33
f 54//33 60//33 55//33
f 67//33 41//33 44//33
f 67//33 44//33 68//33
o STLEXP_Object01.004
v -2.785757 0.948245 -1.337857
v -2.785757 2.386738 -1.337857
v -2.785757 2.386739 1.408480
v -2.785757 0.948246 1.408480
v -4.578032 2.386738 -1.337857
v -4.578032 2.386739 1.408480
v -4.578032 0.948246 -1.337857
v -4.578032 0.948246 1.408480
vn 1.0000 -0.0000 0.0000
vn 0.0000 1.0000 -0.0000
vn -1.0000 0.0000 0.0000
vn 0.0000 0.0000 -1.0000
vn -0.0000 0.0000 1.0000
vn -0.0000 -1.0000 0.0000
usemtl diffuse_Black.003
s 1
f 69//37 70//37 71//37 72//37
f 70//38 73//38 74//38 71//38
f 73//39 75//39 76//39 74//39
f 69//40 75//40 73//40 70//40
f 74//41 76//41 72//41 71//41
f 75//42 69//42 72//42
f 75//42 72//42 76//42
o STLEXP_Object01.005
v 3.731796 2.546540 4.160267
v -4.588726 2.546540 4.160265
v -4.588726 2.546540 1.971791
v -2.708413 2.546540 1.971791
v -2.708413 2.546540 1.433517
v 3.731796 2.546540 1.433518
v -4.588724 9.114747 4.160265
v -4.588724 9.114747 4.001606
v -4.588726 2.546548 1.971791
v 3.731792 9.114747 4.160267
v 3.731794 0.794231 1.433518
v -2.708413 0.794231 1.433517
v -2.708412 2.546547 0.162502
v 3.731792 9.114747 4.001607
v 3.731796 2.546540 0.162500
v 3.731792 0.794231 0.162500
v -2.708413 0.794231 0.162499
v -2.708412 2.546540 0.162499
v -3.965702 2.546548 0.162502
v -2.708413 2.546547 1.971791
vn 0.0000 -1.0000 0.0000
vn -1.0000 0.0000 0.0000
vn -0.9934 0.0338 -0.1094
vn -0.0000 -0.0000 1.0000
vn 0.0000 0.4890 -0.8723
vn 0.0000 0.5046 -0.8633
vn -0.0000 0.4857 -0.8741
vn 0.0000 1.0000 0.0000
vn 0.0000 -0.0000 -1.0000
vn -0.9408 0.1001 -0.3239
vn 1.0000 -0.0000 -0.0000
vn 0.0000 0.4572 -0.8894
usemtl diffuse_Black.003
s 1
f 77//43 78//43 79//43 80//43 81//43 82//43
f 83//44 84//45 85//45 79//44 78//44
f 86//46 83//46 78//46 77//46
f 87//46 82//46 81//46 88//46
f 89//47 84//48 90//48 91//49
f 90//50 84//50 83//50 86//50
f 91//51 92//51 93//51 94//51
f 92//43 87//43 88//43 93//43
f 95//43 89//43 96//43 85//43
f 88//44 81//44 80//44 96//44 89//44 94//44 93//44
f 80//51 79//51 85//51 96//51
f 84//45 95//52 85//45
f 87//53 92//53 82//53
f 77//53 82//53 86//53
f 82//53 92//53 86//53
f 86//53 92//53 90//53
f 90//53 92//53 91//53
f 95//48 84//48 89//47
f 94//54 89//47 91//49
o STLEXP_Object01.006
v -4.416720 9.114747 -0.000019
v -0.309219 2.842443 -1.151163
v -0.309218 2.842443 -3.749722
v -4.416719 9.114747 -4.160278
v -2.708427 2.546540 -0.000019
v -2.708427 0.794232 -0.000019
v -0.116159 0.794233 -0.000018
v -0.116155 2.546541 -0.000018
v -4.588745 9.114747 -0.000019
v -4.588745 2.546540 -0.000019
v -2.708427 0.794232 -1.151163
v -0.116157 0.794233 -1.151163
v -4.588745 9.114747 -4.160278
v -4.588745 2.546540 -4.160278
v -2.733022 2.546540 -3.749722
v -2.733023 2.546540 -1.151163
v -2.708427 2.546540 -1.151163
v -2.733022 2.842444 -3.749722
v -2.733023 2.842443 -1.151163
v -0.116155 2.546541 -1.151163
vn 0.8368 0.5475 0.0027
vn 0.8370 0.5471 0.0054
vn 0.8366 0.5478 0.0000
vn -0.0000 0.0000 1.0000
vn 0.0000 -1.0000 -0.0000
vn 0.0000 1.0000 0.0000
vn -1.0000 0.0000 -0.0000
vn 1.0000 0.0000 0.0000
vn 0.0000 0.0000 -1.0000
vn 0.8371 0.5471 0.0055
vn 0.1451 -0.0019 -0.9894
vn 0.0727 -0.0238 -0.9971
vn 0.0000 -0.0653 -0.9979
vn 0.1451 -0.0238 -0.9891
vn 0.2160 0.0000 -0.9764
usemtl diffuse_Black.003
s 1
f 97//55 98//56 99//57 100//57
f 101//58 102//58 103//58 104//58 97//58 105//58 106//58
f 103//59 102//59 107//59 108//59
f 97//60 100//60 109//60 105//60
f 105//61 109//61 110//61 106//61
f 106//59 110//59 111//59 112//59 113//59 101//59
f 102//61 101//61 113//61 107//61
f 111//62 114//62 115//62 112//62
f 115//63 98//63 116//63 108//63 107//63 113//63 112//63
f 104//62 103//62 108//62
f 108//62 116//62 104//62
f 97//55 104//57 116//64
f 97//55 116//64 98//56
f 110//65 109//63 100//66
f 100//66 99//67 114//68
f 110//65 100//66 114//68
f 110//65 114//68 111//69
f 99//59 98//59 115//59
f 115//59 114//59 99//59
