# Blender v2.83.0 OBJ File: '1.blend'
# www.blender.org
mtllib Plate_B.mtl
o object_1.003
v -4.560000 1.765000 2.940000
v -4.560000 1.765000 3.300000
v -4.470000 1.765000 3.210000
v -4.485000 1.765000 2.925000
v -4.500000 1.765000 2.640000
v -4.515000 1.765000 2.355000
v -4.530000 1.765000 2.070000
v -4.545000 1.765000 1.785000
v -4.560000 1.765000 1.500000
v -4.560000 1.765000 1.860000
v -4.560000 1.765000 2.220000
v -4.560000 1.765000 2.580000
v -2.975455 1.765000 3.242728
v -3.349091 1.765000 3.234546
v -3.722728 1.765000 3.226364
v -4.096364 1.765000 3.218182
v -4.035000 1.765000 3.300000
v -3.510000 1.765000 3.300000
v -2.985000 1.765000 3.300000
v -2.460000 1.765000 3.300000
v -1.935000 1.765000 3.300000
v -1.410000 1.765000 3.300000
v -0.885000 1.765000 3.300000
v -0.360000 1.765000 3.300000
v -0.733636 1.765000 3.291819
v -1.107273 1.765000 3.283637
v -1.480909 1.765000 3.275455
v -1.854546 1.765000 3.267273
v -2.228182 1.765000 3.259091
v -2.601818 1.765000 3.250909
v -4.096364 1.765000 3.210000
v -0.360000 1.765000 3.210000
v -0.733636 1.765000 3.210000
v -1.107273 1.765000 3.210000
v -1.480909 1.765000 3.210000
v -1.854546 1.765000 3.210000
v -2.228182 1.765000 3.210000
v -2.601818 1.765000 3.210000
v -2.975455 1.765000 3.210000
v -3.349091 1.765000 3.210000
v -3.722728 1.765000 3.210000
v -4.470000 1.765000 2.070000
v -4.470000 1.765000 1.785000
v -4.470000 1.765000 1.500000
v -4.470000 1.765000 2.925000
v -4.470000 1.765000 2.640000
v -4.470000 1.765000 2.355000
v 4.178182 1.765000 3.300000
v 4.560000 1.765000 3.300000
v 4.178182 1.765000 3.291819
v 3.796364 1.765000 3.283637
v 3.414546 1.765000 3.275455
v 3.032727 1.765000 3.267273
v 2.650909 1.765000 3.259091
v 2.269091 1.765000 3.250909
v 1.887273 1.765000 3.242728
v 1.505455 1.765000 3.234546
v 1.123636 1.765000 3.226364
v 0.741818 1.765000 3.218182
v 0.360000 1.765000 3.210000
v 0.360000 1.765000 3.300000
v 0.741818 1.765000 3.300000
v 1.123636 1.765000 3.300000
v 1.505455 1.765000 3.300000
v 1.887273 1.765000 3.300000
v 2.269091 1.765000 3.300000
v 2.650909 1.765000 3.300000
v 3.032727 1.765000 3.300000
v 3.414546 1.765000 3.300000
v 3.796364 1.765000 3.300000
v 0.873750 1.765000 3.210000
v 4.470000 1.765000 3.210000
v 3.956250 1.765000 3.210000
v 3.442500 1.765000 3.210000
v 2.928750 1.765000 3.210000
v 2.415000 1.765000 3.210000
v 1.901250 1.765000 3.210000
v 1.387500 1.765000 3.210000
v 4.537500 1.765000 2.850000
v 4.515000 1.765000 2.400000
v 4.492500 1.765000 1.950000
v 4.470000 1.765000 1.500000
v 4.470000 1.765000 1.927500
v 4.470000 1.765000 2.355000
v 4.470000 1.765000 2.782500
v 4.560000 1.765000 1.500000
v 4.560000 1.765000 2.400000
v 0.950000 -0.005000 -3.300000
v 2.850000 -0.005000 -3.300000
v 0.950000 -0.005000 -3.000000
v -0.950000 -0.005000 -2.700000
v -2.850000 -0.005000 -2.400000
v -2.850000 -0.005000 -3.300000
v -0.950000 -0.005000 -3.300000
v -3.705000 -0.005000 -2.400000
v -3.705000 -0.005000 0.450000
v -4.560000 -0.005001 3.300000
v -4.560000 -0.005000 0.450000
v -4.560000 -0.005000 -2.400000
v -1.520000 -0.005001 3.300000
v -0.380000 -0.005000 -0.500000
v 2.090000 -0.005000 1.400000
v 4.560000 -0.005001 3.300000
v 1.520000 -0.005001 3.300000
v 3.705000 -0.005000 0.450000
v -0.000000 -0.005000 -2.400000
v 2.850000 -0.005000 -2.400000
v 4.560000 -0.005000 0.450000
v 3.705000 -0.005000 -2.400000
v 4.560000 -0.005000 -2.400000
v 0.360000 1.480000 3.255000
v 0.360000 1.194999 3.300000
v 0.360000 1.480000 3.300000
v 0.360000 1.480000 3.210000
v 0.360000 1.194999 3.210000
v 4.560000 0.879999 3.300000
v -0.000000 0.879999 3.300000
v -2.100000 0.594999 3.300000
v 2.460000 1.480000 3.300000
v -2.460000 0.594999 3.300000
v -0.360000 1.194999 3.300000
v -1.760000 1.385000 3.300000
v -3.160000 1.575000 3.300000
v -0.120000 1.194999 3.300000
v 0.120000 1.194999 3.300000
v -0.360000 1.480000 3.300000
v 0.120000 1.194999 3.270000
v -0.120000 1.194999 3.240000
v -0.360000 1.194999 3.210000
v 2.415000 1.194999 3.210000
v 4.470000 1.194999 3.210000
v 3.930000 1.195000 1.340000
v 3.390000 1.195000 -0.530000
v 2.850000 1.195000 -2.400000
v 1.605000 1.195000 0.405000
v 3.660000 1.195000 -0.450000
v 4.470000 1.195000 2.355000
v 4.470000 1.195000 1.500000
v 3.705000 1.195000 -2.400000
v 4.478182 1.195000 1.145455
v 4.486364 1.195000 0.790909
v 4.494546 1.195000 0.436364
v 4.502728 1.195000 0.081818
v 4.510909 1.195000 -0.272727
v 4.519091 1.195000 -0.627273
v 4.527273 1.195000 -0.981818
v 4.535455 1.195000 -1.336364
v 4.543636 1.195000 -1.690909
v 4.551818 1.195000 -2.045455
v 4.560000 1.195000 -2.400000
v 4.560000 1.195000 -2.045455
v 4.560000 1.195000 1.500000
v 4.560000 1.195000 1.145455
v 4.560000 1.195000 0.790909
v 4.560000 1.195000 0.436364
v 4.560000 1.195000 0.081818
v 4.560000 1.195000 -0.272727
v 4.560000 1.195000 -0.627273
v 4.560000 1.195000 -0.981818
v 4.560000 1.195000 -1.336364
v 4.560000 1.195000 -1.690909
v -2.415000 1.194999 3.210000
v -2.415000 1.195000 2.355000
v -4.470000 1.195000 1.500000
v -4.470000 1.195000 2.355000
v -4.470000 1.194999 3.210000
v -3.660000 1.195000 -0.450000
v -1.605000 1.195000 0.405000
v -2.850000 1.195000 -2.400000
v -1.605000 1.195000 -0.045000
v -2.850000 1.195001 -3.300000
v -0.000000 1.195001 -3.300000
v 0.710000 1.195000 1.040000
v 1.780000 1.195000 -1.130000
v 2.850000 1.195001 -3.300000
v 1.190000 1.195000 1.040000
v 2.020000 1.195000 -1.130000
v -0.000000 1.194999 3.210000
v -4.560000 1.195000 1.500000
v -4.515000 1.195000 -0.450000
v -4.560000 1.195000 -2.400000
v -4.560000 1.195000 -0.450000
v -3.705000 1.195000 -2.400000
v -2.850000 0.595001 -3.300000
v -0.000000 0.595001 -3.300000
v 2.850000 0.595001 -3.300000
v 4.470000 1.480000 2.355000
v 4.470000 1.575000 1.500000
v 4.470000 1.385000 1.500000
v 2.850000 0.595000 -2.850000
v 2.850000 0.595000 -2.400000
v 4.560000 0.595000 2.400000
v 4.560000 1.480000 2.400000
v 4.560000 0.595000 -0.450000
v 4.560000 1.575000 1.500000
v 4.560000 1.385000 1.500000
v -4.560000 0.880000 2.400000
v -4.560000 0.595000 2.400000
v -4.560000 1.575000 1.500000
v -4.560000 1.385000 1.500000
v -4.560000 0.595000 -0.450000
v -4.530000 1.575000 1.500000
v -4.500000 1.385000 1.500000
v -4.470000 1.385000 1.500000
v -4.470000 1.575000 1.500000
v -4.470000 1.480000 2.355000
v -3.705000 0.595000 -2.400000
v -2.850000 0.595000 -2.400000
v 3.705000 0.595000 -2.400000
v -2.415000 1.480000 3.210000
v -0.360000 1.480000 3.210000
v 4.500000 1.575000 1.500000
v 4.530000 1.385000 1.500000
v -2.850000 0.595000 -2.850000
v 2.415000 1.480000 3.210000
v -0.360000 1.480000 3.255000
vt 0.800572 0.038866
vt 0.799923 0.030129
vt 0.803169 0.030129
vt 0.803169 0.037410
vt 0.803169 0.044690
vt 0.803169 0.051970
vt 0.803169 0.059251
vt 0.803169 0.066531
vt 0.803169 0.073812
vt 0.802520 0.065075
vt 0.801871 0.056339
vt 0.801221 0.047602
vt 0.223758 0.038961
vt 0.223463 0.029221
vt 0.223168 0.019480
vt 0.222873 0.009740
vt 0.222578 0.000000
vt 0.225824 0.000000
vt 0.225824 0.013393
vt 0.225824 0.026785
vt 0.225824 0.040178
vt 0.225824 0.053571
vt 0.225824 0.066964
vt 0.225824 0.080356
vt 0.225824 0.093749
vt 0.225824 0.107142
vt 0.225529 0.097402
vt 0.225234 0.087662
vt 0.224939 0.077921
vt 0.224644 0.068181
vt 0.224349 0.058441
vt 0.224053 0.048701
vt 0.877299 0.185925
vt 0.867765 0.185716
vt 0.877299 0.185716
vt 0.886833 0.185716
vt 0.896367 0.185716
vt 0.905900 0.185716
vt 0.915434 0.185716
vt 0.924968 0.185716
vt 0.934502 0.185716
vt 0.944035 0.185716
vt 0.953569 0.185716
vt 0.963103 0.185716
vt 0.972637 0.185716
vt 0.972637 0.188012
vt 0.963103 0.187803
vt 0.953569 0.187595
vt 0.944035 0.187386
vt 0.934502 0.187177
vt 0.924968 0.186968
vt 0.915434 0.186760
vt 0.905900 0.186551
vt 0.896367 0.186342
vt 0.886833 0.186133
vt 0.216746 0.014561
vt 0.216363 0.007280
vt 0.215981 0.000000
vt 0.218276 0.000000
vt 0.218276 0.007280
vt 0.218276 0.014561
vt 0.218276 0.021841
vt 0.218276 0.029122
vt 0.218276 0.036402
vt 0.218276 0.043682
vt 0.217894 0.036402
vt 0.217511 0.029122
vt 0.217129 0.021841
vt 0.877508 0.189608
vt 0.867765 0.189399
vt 0.877508 0.189399
vt 0.887250 0.189399
vt 0.896993 0.189399
vt 0.906735 0.189399
vt 0.916477 0.189399
vt 0.926220 0.189399
vt 0.935962 0.189399
vt 0.945705 0.189399
vt 0.955447 0.189399
vt 0.965189 0.189399
vt 0.974932 0.189399
vt 0.974932 0.191695
vt 0.965189 0.191486
vt 0.955447 0.191278
vt 0.945705 0.191069
vt 0.935962 0.190860
vt 0.926220 0.190651
vt 0.916477 0.190443
vt 0.906735 0.190234
vt 0.896993 0.190025
vt 0.887250 0.189817
vt 0.230083 0.013396
vt 0.230489 0.000000
vt 0.230489 0.009742
vt 0.230489 0.019485
vt 0.230489 0.029227
vt 0.230489 0.038970
vt 0.230489 0.048712
vt 0.230489 0.058454
vt 0.230489 0.068197
vt 0.230489 0.077939
vt 0.230489 0.087682
vt 0.230489 0.097424
vt 0.230489 0.107166
vt 0.227242 0.107166
vt 0.227648 0.093771
vt 0.228054 0.080375
vt 0.228460 0.066979
vt 0.228866 0.053583
vt 0.229272 0.040187
vt 0.229678 0.026792
vt 0.803893 0.030129
vt 0.807140 0.030129
vt 0.807140 0.041623
vt 0.807140 0.053117
vt 0.807140 0.064611
vt 0.807140 0.076105
vt 0.806329 0.064611
vt 0.805517 0.053117
vt 0.804705 0.041623
vt 0.277882 0.045918
vt 0.231907 0.000000
vt 0.243401 0.000000
vt 0.254895 0.000000
vt 0.266389 0.000000
vt 0.277882 0.000000
vt 0.277882 0.022959
vt 0.493708 0.639379
vt 0.444639 0.631726
vt 0.493708 0.631726
vt 0.542778 0.631726
vt 0.591847 0.631726
vt 0.591847 0.654685
vt 0.542778 0.647032
vt 0.503838 0.071971
vt 0.427934 0.000000
vt 0.503838 0.000000
vt 0.579743 0.000000
vt 0.579743 0.071971
vt 0.579743 0.143942
vt 0.665655 0.534283
vt 0.615540 0.454788
vt 0.690712 0.454788
vt 0.765884 0.454788
vt 0.765884 0.534283
vt 0.765884 0.613778
vt 0.765884 0.693273
vt 0.715769 0.613778
vt 0.358631 0.717398
vt 0.431334 0.598888
vt 0.431334 0.677895
vt 0.431334 0.756902
vt 0.431334 0.835908
vt 0.358631 0.835908
vt 0.285927 0.835908
vt 0.271930 0.129374
vt 0.271930 0.202077
vt 0.271930 0.274781
vt 0.222861 0.274781
vt 0.173792 0.274781
vt 0.124722 0.274781
vt 0.361100 0.464915
vt 0.285927 0.443837
vt 0.361100 0.443837
vt 0.436272 0.443837
vt 0.436272 0.464915
vt 0.436272 0.485994
vt 0.183192 0.716565
vt 0.183192 0.723925
vt 0.183192 0.731286
vt 0.175922 0.731286
vt 0.168652 0.731286
vt 0.160221 0.716565
vt 0.160221 0.723925
vt 0.160221 0.731286
vt 0.152950 0.731286
vt 0.145680 0.731286
vt 0.882942 0.573284
vt 0.998535 0.454788
vt 0.998535 0.573284
vt 0.998535 0.691780
vt 0.921473 0.691780
vt 0.844411 0.691780
vt 0.767349 0.691780
vt 0.053330 0.518711
vt 0.106659 0.400215
vt 0.106659 0.518711
vt 0.106659 0.637207
vt 0.053330 0.637207
vt 0.000000 0.637207
vt 0.669111 0.084191
vt 0.722682 0.030129
vt 0.722682 0.084191
vt 0.722682 0.138253
vt 0.712942 0.138253
vt 0.703201 0.138253
vt 0.693461 0.138253
vt 0.683721 0.138253
vt 0.673981 0.138253
vt 0.664241 0.138253
vt 0.654500 0.138253
vt 0.644760 0.138253
vt 0.635020 0.138253
vt 0.625280 0.138253
vt 0.615540 0.138253
vt 0.108124 0.716565
vt 0.108124 0.772280
vt 0.108124 0.827994
vt 0.072083 0.827994
vt 0.036041 0.827994
vt 0.000000 0.827994
vt 0.372053 0.524114
vt 0.415116 0.487459
vt 0.415116 0.542441
vt 0.415116 0.597423
vt 0.350522 0.597423
vt 0.285927 0.597423
vt 0.328990 0.560768
vt 0.881281 0.194900
vt 0.867765 0.193082
vt 0.903807 0.193082
vt 0.939848 0.193082
vt 0.975889 0.193082
vt 0.975889 0.200353
vt 0.975889 0.207623
vt 0.962374 0.205805
vt 0.948858 0.203988
vt 0.935343 0.202170
vt 0.921827 0.200353
vt 0.908312 0.198535
vt 0.894796 0.196718
vt 0.214213 0.006170
vt 0.214978 0.000000
vt 0.214978 0.006170
vt 0.214978 0.012340
vt 0.214978 0.018510
vt 0.212682 0.018510
vt 0.213447 0.012340
vt 0.506221 0.219154
vt 0.584508 0.145407
vt 0.584508 0.194571
vt 0.584508 0.243736
vt 0.584508 0.292900
vt 0.506221 0.292900
vt 0.427934 0.292900
vt 0.360407 0.421293
vt 0.285927 0.400215
vt 0.335580 0.400215
vt 0.385233 0.400215
vt 0.434886 0.400215
vt 0.434886 0.421293
vt 0.434886 0.442372
vt 0.200311 0.338815
vt 0.250068 0.284950
vt 0.250068 0.338815
vt 0.250068 0.392680
vt 0.241021 0.392680
vt 0.231975 0.392680
vt 0.222928 0.392680
vt 0.213881 0.392680
vt 0.204834 0.392680
vt 0.195787 0.392680
vt 0.186740 0.392680
vt 0.177693 0.392680
vt 0.168647 0.392680
vt 0.159600 0.392680
vt 0.150553 0.392680
vt 0.221366 0.009047
vt 0.221575 0.000000
vt 0.221575 0.009047
vt 0.221575 0.018094
vt 0.221575 0.027141
vt 0.221575 0.036187
vt 0.221575 0.045234
vt 0.221575 0.054281
vt 0.221575 0.063328
vt 0.221575 0.072375
vt 0.221575 0.081422
vt 0.221575 0.090469
vt 0.221575 0.099515
vt 0.219279 0.099515
vt 0.219488 0.090469
vt 0.219697 0.081422
vt 0.219905 0.072375
vt 0.220114 0.063328
vt 0.220323 0.054281
vt 0.220531 0.045234
vt 0.220740 0.036187
vt 0.220949 0.027141
vt 0.221158 0.018094
vt 0.768384 0.086909
vt 0.790195 0.030129
vt 0.790195 0.086909
vt 0.790195 0.143688
vt 0.768384 0.143688
vt 0.746573 0.143688
vt 0.522926 0.772335
vt 0.601213 0.715555
vt 0.601213 0.772335
vt 0.601213 0.829114
vt 0.522926 0.829114
vt 0.444639 0.829114
vt 0.284462 0.558390
vt 0.284462 0.636677
vt 0.284462 0.714964
vt 0.196293 0.714964
vt 0.108124 0.714964
vt 0.525906 0.492795
vt 0.437737 0.400215
vt 0.525906 0.400215
vt 0.614075 0.400215
vt 0.614075 0.461935
vt 0.614075 0.523656
vt 0.614075 0.585376
vt 0.800701 0.018367
vt 0.738981 0.012245
vt 0.677260 0.006122
vt 0.615540 0.000000
vt 0.677260 0.000000
vt 0.738981 0.000000
vt 0.800701 0.000000
vt 0.800701 0.009184
vt 0.807864 0.030129
vt 0.817048 0.030129
vt 0.826232 0.030129
vt 0.826232 0.036299
vt 0.826232 0.042469
vt 0.826232 0.048639
vt 0.284462 0.556789
vt 0.108124 0.400215
vt 0.166904 0.400215
vt 0.225683 0.400215
vt 0.284462 0.400215
vt 0.284462 0.478502
vt 0.099515 0.099489
vt 0.000000 0.000000
vt 0.049758 0.000000
vt 0.099515 0.000000
vt 0.099515 0.049744
vt 0.049758 0.338815
vt 0.000000 0.284950
vt 0.049758 0.284950
vt 0.099515 0.284950
vt 0.099515 0.338815
vt 0.099515 0.392680
vt 0.880473 0.290706
vt 0.953177 0.216409
vt 0.953177 0.290706
vt 0.953177 0.365003
vt 0.904708 0.365003
vt 0.856239 0.365003
vt 0.807770 0.365003
vt 0.688243 0.290706
vt 0.760947 0.216409
vt 0.760947 0.290706
vt 0.760947 0.365003
vt 0.688243 0.365003
vt 0.615540 0.365003
vt 0.202161 0.070257
vt 0.205797 0.058762
vt 0.205797 0.081753
vt 0.205797 0.104743
vt 0.191256 0.104743
vt 0.194891 0.093248
vt 0.198526 0.081753
vt 0.177100 0.081753
vt 0.184370 0.058762
vt 0.184370 0.081753
vt 0.184370 0.104743
vt 0.179524 0.104743
vt 0.174677 0.104743
vt 0.169830 0.104743
vt 0.155334 0.058762
vt 0.155334 0.077894
vt 0.155334 0.097027
vt 0.140028 0.097027
vt 0.124722 0.097027
vt 0.199314 0.000000
vt 0.199314 0.019132
vt 0.199314 0.038265
vt 0.184008 0.038265
vt 0.168702 0.038265
vt 0.827516 0.145185
vt 0.799923 0.121102
vt 0.827516 0.121102
vt 0.855109 0.121102
vt 0.855109 0.145185
vt 0.855109 0.169268
vt 0.517342 0.683948
vt 0.590046 0.656355
vt 0.590046 0.683948
vt 0.590046 0.711542
vt 0.517342 0.711542
vt 0.444639 0.711542
vt 0.454102 0.601671
vt 0.444639 0.598888
vt 0.496685 0.598888
vt 0.548731 0.598888
vt 0.548731 0.629500
vt 0.539268 0.626717
vt 0.529805 0.623934
vt 0.520342 0.621151
vt 0.510879 0.618368
vt 0.501416 0.615586
vt 0.491953 0.612803
vt 0.482491 0.610020
vt 0.473028 0.607237
vt 0.463565 0.604454
vt 0.264017 0.095550
vt 0.280072 0.080244
vt 0.280072 0.103203
vt 0.280072 0.126162
vt 0.255990 0.126162
vt 0.231907 0.126162
vt 0.247962 0.110856
vt 0.250717 0.729284
vt 0.259747 0.716565
vt 0.259747 0.748361
vt 0.259747 0.780158
vt 0.214595 0.780158
vt 0.223625 0.767439
vt 0.232656 0.754721
vt 0.241686 0.742002
vt 0.198893 0.748361
vt 0.206164 0.716565
vt 0.206164 0.748361
vt 0.206164 0.780158
vt 0.201317 0.780158
vt 0.196470 0.780158
vt 0.191623 0.780158
vt 0.197726 0.808765
vt 0.249772 0.781622
vt 0.249772 0.808765
vt 0.249772 0.835908
vt 0.197726 0.835908
vt 0.145680 0.835908
vt 0.000000 0.142475
vt 0.052046 0.142475
vt 0.104092 0.142475
vt 0.104092 0.192219
vt 0.104092 0.241964
vt 0.872672 0.175432
vt 0.867765 0.174667
vt 0.872672 0.174667
vt 0.877579 0.174667
vt 0.882486 0.174667
vt 0.882486 0.176962
vt 0.877579 0.176197
vt 0.872672 0.171749
vt 0.867765 0.170983
vt 0.872672 0.170983
vt 0.877579 0.170983
vt 0.882486 0.170983
vt 0.882486 0.173279
vt 0.877579 0.172514
vt 0.254898 0.071733
vt 0.231907 0.064687
vt 0.254898 0.064687
vt 0.277889 0.064687
vt 0.277889 0.078780
vt 0.239571 0.051478
vt 0.231907 0.049129
vt 0.254898 0.049129
vt 0.277889 0.049129
vt 0.277889 0.053827
vt 0.277889 0.058524
vt 0.277889 0.063222
vt 0.270225 0.060873
vt 0.262562 0.058524
vt 0.254898 0.056176
vt 0.247234 0.053827
vt 0.977505 0.000000
vt 0.977505 0.026646
vt 0.977505 0.053291
vt 0.955694 0.053291
vt 0.933883 0.053291
vt 0.889576 0.026646
vt 0.911387 0.000000
vt 0.911387 0.026646
vt 0.911387 0.053291
vt 0.889576 0.053291
vt 0.867765 0.053291
vt 0.955694 0.112137
vt 0.977505 0.085492
vt 0.977505 0.112137
vt 0.977505 0.138783
vt 0.955694 0.138783
vt 0.933883 0.138783
vt 0.867765 0.138783
vt 0.911387 0.085492
vt 0.911387 0.112137
vt 0.911387 0.138783
vt 0.889576 0.138783
vt 0.406955 0.252029
vt 0.301106 0.147183
vt 0.354031 0.147183
vt 0.406955 0.147183
vt 0.406955 0.199606
vt 0.354031 0.052423
vt 0.301106 0.000000
vt 0.354031 0.000000
vt 0.406955 0.000000
vt 0.406955 0.009531
vt 0.406955 0.019063
vt 0.406955 0.028594
vt 0.406955 0.038126
vt 0.406955 0.047657
vt 0.406955 0.057189
vt 0.406955 0.066720
vt 0.406955 0.076252
vt 0.406955 0.085783
vt 0.406955 0.095315
vt 0.406955 0.104846
vt 0.872672 0.182798
vt 0.867765 0.182033
vt 0.872672 0.182033
vt 0.877579 0.182033
vt 0.882486 0.182033
vt 0.882486 0.184329
vt 0.877579 0.183563
vt 0.872672 0.179115
vt 0.867765 0.178350
vt 0.872672 0.178350
vt 0.877579 0.178350
vt 0.882486 0.178350
vt 0.882486 0.180646
vt 0.877579 0.179880
vt 0.155334 0.000000
vt 0.155334 0.019132
vt 0.155334 0.038265
vt 0.140028 0.038265
vt 0.124722 0.038265
vt 0.860939 0.030129
vt 0.860939 0.049262
vt 0.860939 0.068394
vt 0.845633 0.068394
vt 0.830327 0.068394
vt 0.510746 0.346558
vt 0.563169 0.294365
vt 0.563169 0.346558
vt 0.563169 0.398750
vt 0.510746 0.398750
vt 0.458323 0.398750
vt 0.405952 0.294365
vt 0.405952 0.346558
vt 0.405952 0.398750
vt 0.392846 0.398750
vt 0.379740 0.398750
vt 0.366635 0.398750
vt 0.353529 0.398750
vt 0.340423 0.398750
vt 0.327317 0.398750
vt 0.314212 0.398750
vt 0.301106 0.398750
vt 0.183192 0.749094
vt 0.183192 0.756454
vt 0.183192 0.763815
vt 0.175922 0.763815
vt 0.168652 0.763815
vt 0.160221 0.749094
vt 0.160221 0.756454
vt 0.160221 0.763815
vt 0.152950 0.763815
vt 0.145680 0.763815
vn 0.0000 1.0000 0.0000
vn -0.0000 -1.0000 -0.0000
vn -1.0000 -0.0000 0.0000
vn 0.0000 -0.0000 1.0000
vn 0.0000 0.0000 -1.0000
vn 1.0000 -0.0000 0.0000
usemtl 0012_Bisque.003
s 1
f 1/1/1 2/2/1 3/3/1 4/4/1 5/5/1 6/6/1 7/7/1 8/8/1 9/9/1 10/10/1 11/11/1 12/12/1
f 13/13/1 14/14/1 15/15/1 16/16/1 3/17/1 2/18/1 17/19/1 18/20/1 19/21/1 20/22/1 21/23/1 22/24/1 23/25/1 24/26/1 25/27/1 26/28/1 27/29/1 28/30/1 29/31/1 30/32/1
f 31/33/1 3/34/1 16/35/1 15/36/1 14/37/1 13/38/1 30/39/1 29/40/1 28/41/1 27/42/1 26/43/1 25/44/1 24/45/1 32/46/1 33/47/1 34/48/1 35/49/1 36/50/1 37/51/1 38/52/1 39/53/1 40/54/1 41/55/1
f 42/56/1 43/57/1 44/58/1 9/59/1 8/60/1 7/61/1 6/62/1 5/63/1 4/64/1 3/65/1 45/66/1 46/67/1 47/68/1
f 48/69/1 49/70/1 50/71/1 51/72/1 52/73/1 53/74/1 54/75/1 55/76/1 56/77/1 57/78/1 58/79/1 59/80/1 60/81/1 61/82/1 62/83/1 63/84/1 64/85/1 65/86/1 66/87/1 67/88/1 68/89/1 69/90/1 70/91/1
f 71/92/1 60/93/1 59/94/1 58/95/1 57/96/1 56/97/1 55/98/1 54/99/1 53/100/1 52/101/1 51/102/1 50/103/1 49/104/1 72/105/1 73/106/1 74/107/1 75/108/1 76/109/1 77/110/1 78/111/1
f 72/112/1 49/113/1 79/114/1 80/115/1 81/116/1 82/117/1 83/118/1 84/119/1 85/120/1
f 86/121/1 82/122/1 81/123/1 80/124/1 79/125/1 49/126/1 87/127/1
f 88/128/2 89/129/2 90/130/2 91/131/2 92/132/2 93/133/2 94/134/2
f 95/135/2 92/136/2 96/137/2 97/138/2 98/139/2 99/140/2
f 100/141/2 97/142/2 96/143/2 92/144/2 101/145/2 102/146/2 103/147/2 104/148/2
f 105/149/2 103/150/2 102/151/2 101/152/2 92/153/2 106/154/2 107/155/2
f 107/156/2 106/157/2 92/158/2 91/159/2 90/160/2 89/161/2
f 108/162/2 103/163/2 105/164/2 107/165/2 109/166/2 110/167/2
f 60/168/3 111/169/3 112/170/3 113/171/3 61/172/3
f 112/173/3 111/174/3 60/175/3 114/176/3 115/177/3
f 116/178/4 49/179/4 117/180/4 97/181/4 100/182/4 104/183/4 103/184/4
f 118/185/4 97/186/4 117/187/4 49/188/4 119/189/4 112/190/4
f 113/191/4 112/192/4 119/193/4 49/194/4 48/195/4 70/196/4 69/197/4 68/198/4 67/199/4 66/200/4 65/201/4 64/202/4 63/203/4 62/204/4 61/205/4
f 97/206/4 120/207/4 121/208/4 122/209/4 123/210/4 2/211/4
f 124/212/4 121/213/4 120/214/4 97/215/4 118/216/4 112/217/4 125/218/4
f 17/219/4 2/220/4 123/221/4 122/222/4 121/223/4 126/224/4 24/225/4 23/226/4 22/227/4 21/228/4 20/229/4 19/230/4 18/231/4
f 125/232/1 112/233/1 127/234/1 128/235/1 129/236/1 121/237/1 124/238/1
f 130/239/1 131/240/1 132/241/1 133/242/1 134/243/1 135/244/1 115/245/1
f 136/246/1 134/247/1 133/248/1 132/249/1 131/250/1 137/251/1 138/252/1
f 139/253/1 134/254/1 136/255/1 138/256/1 140/257/1 141/258/1 142/259/1 143/260/1 144/261/1 145/262/1 146/263/1 147/264/1 148/265/1 149/266/1 150/267/1
f 151/268/1 150/269/1 149/270/1 148/271/1 147/272/1 146/273/1 145/274/1 144/275/1 143/276/1 142/277/1 141/278/1 140/279/1 138/280/1 152/281/1 153/282/1 154/283/1 155/284/1 156/285/1 157/286/1 158/287/1 159/288/1 160/289/1 161/290/1
f 162/291/1 129/292/1 163/293/1 164/294/1 165/295/1 166/296/1
f 167/297/1 164/298/1 163/299/1 129/300/1 168/301/1 169/302/1
f 169/303/1 168/304/1 129/305/1 170/306/1 171/307/1
f 172/308/1 171/309/1 170/310/1 129/311/1 173/312/1 174/313/1 175/314/1
f 115/315/1 176/316/1 177/317/1 175/318/1 174/319/1 173/320/1 129/321/1 178/322/1
f 115/323/1 178/324/1 129/325/1 128/326/1 127/327/1 112/328/1
f 134/329/1 175/330/1 177/331/1 176/332/1 115/333/1 135/334/1
f 179/335/1 164/336/1 180/337/1 181/338/1 182/339/1
f 183/340/1 181/341/1 180/342/1 164/343/1 167/344/1 169/345/1
f 184/346/5 171/347/5 185/348/5 89/349/5 88/350/5 94/351/5 93/352/5
f 186/353/5 89/354/5 185/355/5 171/356/5 172/357/5 175/358/5
f 83/359/3 82/360/3 187/361/3 131/362/3 72/363/3 85/364/3 84/365/3
f 137/366/3 131/367/3 187/368/3 82/369/3 188/370/3 189/371/3 138/372/3
f 89/373/6 190/374/6 134/375/6 191/376/6 107/377/6
f 134/378/6 190/379/6 89/380/6 186/381/6 175/382/6
f 116/383/6 103/384/6 192/385/6 152/386/6 193/387/6 49/388/6
f 194/389/6 152/390/6 192/391/6 103/392/6 108/393/6 110/394/6
f 153/395/6 152/396/6 194/397/6 110/398/6 150/399/6 151/400/6 161/401/6 160/402/6 159/403/6 158/404/6 157/405/6 156/406/6 155/407/6 154/408/6
f 195/409/6 86/410/6 87/411/6 49/412/6 193/413/6 152/414/6 196/415/6
f 10/416/3 9/417/3 197/418/3 97/419/3 2/420/3 1/421/3 12/422/3 11/423/3
f 198/424/3 97/425/3 197/426/3 9/427/3 199/428/3 200/429/3 179/430/3
f 98/431/3 97/432/3 198/433/3 179/434/3 201/435/3 99/436/3
f 99/437/3 201/438/3 179/439/3 182/440/3 181/441/3
f 199/442/5 9/443/5 202/444/5 203/445/5 164/446/5 179/447/5 200/448/5
f 204/449/5 164/450/5 203/451/5 202/452/5 9/453/5 44/454/5 205/455/5
f 165/456/6 164/457/6 206/458/6 3/459/6 166/460/6
f 45/461/6 3/462/6 206/463/6 164/464/6 204/465/6 205/466/6 44/467/6 43/468/6 42/469/6 47/470/6 46/471/6
f 181/472/5 207/473/5 92/474/5 95/475/5 99/476/5
f 208/477/5 92/478/5 207/479/5 181/480/5 183/481/5 169/482/5
f 191/483/5 134/484/5 209/485/5 110/486/5 109/487/5 107/488/5
f 150/489/5 110/490/5 209/491/5 134/492/5 139/493/5
f 166/494/5 3/495/5 210/496/5 129/497/5 162/498/5
f 211/499/5 129/500/5 210/501/5 3/502/5 31/503/5 41/504/5 40/505/5 39/506/5 38/507/5 37/508/5 36/509/5 35/510/5 34/511/5 33/512/5 32/513/5
f 188/514/5 82/515/5 212/516/5 213/517/5 152/518/5 138/519/5 189/520/5
f 196/521/5 152/522/5 213/523/5 212/524/5 82/525/5 86/526/5 195/527/5
f 171/528/3 214/529/3 92/530/3 208/531/3 169/532/3
f 92/533/3 214/534/3 171/535/3 184/536/3 93/537/3
f 114/538/5 60/539/5 215/540/5 131/541/5 130/542/5 115/543/5
f 131/544/5 215/545/5 60/546/5 71/547/5 78/548/5 77/549/5 76/550/5 75/551/5 74/552/5 73/553/5 72/554/5
f 129/555/6 216/556/6 24/557/6 126/558/6 121/559/6
f 24/560/6 216/561/6 129/562/6 211/563/6 32/564/6
