# Blender v2.83.0 OBJ File: '1.blend'
# www.blender.org
mtllib Roof_B.mtl
o object_1.005
v -1.743848 1.165001 -4.210021
v -0.000000 0.580001 -4.210021
v 1.743848 -0.004999 -4.210021
v -0.000000 -0.004999 -4.210021
v -1.743848 -0.004999 -4.210021
v -0.000000 1.165001 -4.210021
v 1.743848 1.165001 -4.210021
v -2.565906 1.165001 -3.387964
v -2.976934 0.580001 -2.976935
v -4.210021 -0.004999 -1.743849
v -4.210021 1.165000 -1.743848
v -3.387963 1.165001 -2.565906
v -2.976934 -0.004999 -2.976935
v -1.743848 -0.005000 4.210021
v -1.743848 1.164999 4.210021
v -2.976934 0.580000 2.976934
v -4.210021 -0.005000 1.743847
v -2.976934 -0.005000 2.976933
v -4.210021 1.165000 1.743847
v -2.976934 1.165000 2.976934
v 2.976934 0.580001 -2.976935
v 4.210021 -0.004999 -1.743849
v 2.976934 -0.004999 -2.976935
v 2.565906 1.165001 -3.387964
v 3.387963 1.165001 -2.565906
v 4.210021 1.165000 -1.743848
v -2.976934 -0.005000 1.233086
v -4.210021 -0.005000 -0.000001
v -1.743848 -0.005000 -0.000001
v 0.000000 -0.005000 -0.000001
v 1.743848 -0.005000 -0.000001
v 0.000000 -0.005000 4.210021
v 1.743848 -0.005000 4.210021
v 2.976934 -0.005000 1.233086
v 4.210021 -0.005000 -0.000001
v 2.976934 -0.005000 2.976933
v 4.210021 -0.005000 1.743847
v 1.743848 1.164999 4.210021
v 0.000000 0.579999 4.210021
v 0.000000 1.164999 4.210021
v 4.210021 0.580000 -0.000001
v 4.210021 1.165000 1.743847
v 4.210021 1.165000 0.581282
v 4.210021 1.165000 -0.581283
v 2.976934 0.580000 2.976934
v 2.976934 1.165000 2.976934
v -4.210021 1.165000 -0.000000
v -4.210021 0.580000 -0.000001
v 0.723843 4.675000 -1.747510
v 0.000000 8.184999 0.000001
v 1.747510 4.675000 -0.723842
v 3.495021 1.165000 -1.447685
v 2.812576 1.165000 -2.130131
v 2.130130 1.165001 -2.812576
v 1.447685 1.165001 -3.495021
v -0.482562 5.845000 -1.165007
v -0.000000 1.165001 -3.495021
v -1.447685 1.165001 -3.495021
v -0.965123 3.505001 -2.330014
v 0.723843 4.675000 1.747511
v -0.723843 4.675000 1.747511
v -1.447685 1.165000 3.495020
v -0.482562 1.165000 3.495020
v 0.482562 1.165000 3.495020
v 1.447685 1.165000 3.495020
v -2.330014 3.505000 -0.965123
v -3.495021 1.165000 -1.447685
v -3.495021 1.165000 -0.000000
v -3.495021 1.165000 1.447685
v -1.747510 4.675000 0.723843
v -1.165007 5.845000 -0.482561
v -2.812576 1.165000 2.130130
v -2.130130 1.165000 2.812575
v -3.852521 1.165000 -0.148082
v -2.911297 1.165000 2.368463
v -2.327572 1.165000 3.289242
v -0.383841 1.164999 3.733354
v 0.680003 1.164999 3.971687
v 2.471353 1.165000 2.471353
v 2.619434 1.165000 2.828852
v 3.495021 1.165000 1.447685
v 3.495021 1.165000 0.482561
v 3.971688 1.165000 0.680003
v 3.733354 1.165000 -0.383841
v 3.495021 1.165000 -0.482562
v -2.911297 1.165001 -2.368464
v -2.327572 1.165001 -3.289243
v -2.471353 1.165001 -2.471354
v 0.148081 1.165001 -3.852521
v 2.181641 1.165001 -3.519438
v 3.057228 1.165000 -2.138270
v 2.619434 1.165001 -2.828853
v 1.747510 4.675000 0.723843
vt 0.660762 0.659899
vt 0.660762 0.714103
vt 0.660762 0.768306
vt 0.610106 0.768306
vt 0.559449 0.768306
vt 0.557984 0.659899
vt 0.557984 0.714103
vt 0.557984 0.768306
vt 0.507328 0.768306
vt 0.456671 0.768306
vt 0.801140 0.081142
vt 0.765005 0.069649
vt 0.819208 0.069649
vt 0.873411 0.069649
vt 0.873411 0.104127
vt 0.837276 0.092635
vt 0.054203 0.442143
vt 0.000000 0.424904
vt 0.054203 0.424904
vt 0.108407 0.424904
vt 0.108407 0.459382
vt 0.273963 0.213207
vt 0.165557 0.110429
vt 0.219760 0.110429
vt 0.273963 0.110429
vt 0.273963 0.161818
vt 0.273963 0.102778
vt 0.165557 0.000000
vt 0.219760 0.000000
vt 0.273963 0.000000
vt 0.273963 0.051389
vt 0.000000 0.110429
vt 0.054203 0.110429
vt 0.108407 0.110429
vt 0.108407 0.161818
vt 0.108407 0.213207
vt 0.000000 0.000000
vt 0.054203 0.000000
vt 0.108407 0.000000
vt 0.108407 0.034259
vt 0.108407 0.068518
vt 0.108407 0.102778
vt 0.363525 0.593790
vt 0.268571 0.542402
vt 0.363525 0.542402
vt 0.458480 0.542402
vt 0.458480 0.593790
vt 0.458480 0.645179
vt 0.124064 0.315812
vt 0.248127 0.220858
vt 0.248127 0.315812
vt 0.248127 0.410766
vt 0.124064 0.410766
vt 0.000000 0.410766
vt 0.133553 0.755266
vt 0.267106 0.631202
vt 0.267106 0.755266
vt 0.267106 0.879330
vt 0.133553 0.879330
vt 0.000000 0.879330
vt 0.712883 0.134286
vt 0.763540 0.000000
vt 0.763540 0.134286
vt 0.763540 0.268571
vt 0.712883 0.268571
vt 0.662227 0.268571
vt 0.455177 0.094222
vt 0.331113 0.000000
vt 0.455177 0.000000
vt 0.579241 0.000000
vt 0.579241 0.094222
vt 0.579241 0.188444
vt 0.319228 0.754853
vt 0.369884 0.659899
vt 0.369884 0.754853
vt 0.369884 0.849808
vt 0.319228 0.849808
vt 0.268571 0.849808
vt 0.660762 0.777397
vt 0.660762 0.831600
vt 0.660762 0.885804
vt 0.610106 0.885804
vt 0.559449 0.885804
vt 0.557984 0.777397
vt 0.557984 0.831600
vt 0.557984 0.885804
vt 0.507328 0.885804
vt 0.456671 0.885804
vt 0.819208 0.156537
vt 0.765005 0.139298
vt 0.819208 0.139298
vt 0.873411 0.139298
vt 0.873411 0.173776
vt 0.170421 0.606054
vt 0.134286 0.594561
vt 0.188489 0.594561
vt 0.242692 0.594561
vt 0.242692 0.629039
vt 0.206557 0.617547
vt 0.936706 0.079500
vt 0.882502 0.062261
vt 0.936706 0.062261
vt 0.990909 0.062261
vt 0.990909 0.096739
vt 0.936706 0.017239
vt 0.882502 0.000000
vt 0.936706 0.000000
vt 0.990909 0.000000
vt 0.990909 0.034478
vt 0.819208 0.017239
vt 0.765005 0.000000
vt 0.819208 0.000000
vt 0.873411 0.000000
vt 0.873411 0.034478
vt 0.819208 0.226186
vt 0.765005 0.208947
vt 0.819208 0.208947
vt 0.873411 0.208947
vt 0.873411 0.243425
vt 0.881770 0.475332
vt 0.765005 0.432671
vt 0.881770 0.432671
vt 0.998535 0.432671
vt 0.998535 0.461111
vt 0.998535 0.489552
vt 0.998535 0.517993
vt 0.532797 0.502747
vt 0.561237 0.424904
vt 0.561237 0.541669
vt 0.561237 0.658434
vt 0.518576 0.658434
vt 0.475915 0.658434
vt 0.504356 0.580591
vt 0.413278 0.776665
vt 0.455207 0.659899
vt 0.455207 0.776665
vt 0.455207 0.893430
vt 0.427254 0.893430
vt 0.399301 0.893430
vt 0.371349 0.893430
vt 0.920692 0.307037
vt 0.998535 0.278596
vt 0.998535 0.321257
vt 0.998535 0.363919
vt 0.881770 0.363919
vt 0.765005 0.363919
vt 0.842848 0.335478
vt 0.779725 0.629407
vt 0.662227 0.586745
vt 0.779725 0.586745
vt 0.897222 0.586745
vt 0.897222 0.615186
vt 0.897222 0.643627
vt 0.897222 0.672068
vt 0.182476 0.484763
vt 0.230667 0.473377
vt 0.230667 0.496149
vt 0.182476 0.496149
vt 0.134286 0.496149
vt 0.202804 0.577915
vt 0.237063 0.570324
vt 0.237063 0.593096
vt 0.185674 0.593096
vt 0.134286 0.593096
vt 0.168545 0.585506
vt 0.032127 0.611341
vt 0.000000 0.603739
vt 0.032127 0.603739
vt 0.064254 0.603739
vt 0.096381 0.603739
vt 0.096381 0.626545
vt 0.064254 0.618943
vt 0.202804 0.553678
vt 0.237063 0.546088
vt 0.237063 0.568859
vt 0.185674 0.568859
vt 0.134286 0.568859
vt 0.168545 0.561269
vt 0.166413 0.432494
vt 0.134286 0.424904
vt 0.166413 0.424904
vt 0.198540 0.424904
vt 0.230667 0.424904
vt 0.230667 0.447676
vt 0.198540 0.440085
vt 0.182476 0.533237
vt 0.230667 0.521851
vt 0.230667 0.544623
vt 0.182476 0.544623
vt 0.134286 0.544623
vt 0.365933 0.424904
vt 0.414124 0.424904
vt 0.462315 0.424904
vt 0.462315 0.476293
vt 0.462315 0.527682
vt 0.064254 0.501488
vt 0.096381 0.493886
vt 0.096381 0.516692
vt 0.064254 0.516692
vt 0.032127 0.516692
vt 0.000000 0.516692
vt 0.032127 0.509090
vt 0.198540 0.505205
vt 0.230667 0.497614
vt 0.230667 0.520386
vt 0.198540 0.520386
vt 0.166413 0.520386
vt 0.134286 0.520386
vt 0.166413 0.512795
vt 0.182476 0.460527
vt 0.230667 0.449141
vt 0.230667 0.471913
vt 0.182476 0.471913
vt 0.134286 0.471913
vt 0.268571 0.521285
vt 0.353894 0.424904
vt 0.353894 0.457031
vt 0.353894 0.489158
vt 0.353894 0.521285
vt 0.311232 0.521285
vt 0.048191 0.587679
vt 0.096381 0.576276
vt 0.096381 0.599082
vt 0.048191 0.599082
vt 0.000000 0.599082
vt 0.882502 0.124521
vt 0.930693 0.124521
vt 0.978884 0.124521
vt 0.978884 0.167182
vt 0.978884 0.209844
vt 0.063992 0.472124
vt 0.085323 0.466423
vt 0.085323 0.489229
vt 0.056882 0.489229
vt 0.028441 0.489229
vt 0.000000 0.489229
vt 0.021331 0.483527
vt 0.042661 0.477826
vt 0.032127 0.556415
vt 0.000000 0.548813
vt 0.024095 0.548813
vt 0.048191 0.548813
vt 0.072286 0.548813
vt 0.096381 0.548813
vt 0.096381 0.571619
vt 0.064254 0.564017
vt 0.064254 0.528951
vt 0.096381 0.521349
vt 0.096381 0.544155
vt 0.064254 0.544155
vt 0.032127 0.544155
vt 0.000000 0.544155
vt 0.032127 0.536553
vt 0.409445 0.267752
vt 0.331113 0.189908
vt 0.448611 0.189908
vt 0.566109 0.189908
vt 0.566109 0.306674
vt 0.566109 0.423439
vt 0.487777 0.345596
vt 0.597512 0.502747
vt 0.569071 0.424904
vt 0.611732 0.424904
vt 0.654393 0.424904
vt 0.654393 0.502747
vt 0.654393 0.580591
vt 0.654393 0.658434
vt 0.625953 0.580591
vt 0.779725 0.783481
vt 0.662227 0.740820
vt 0.779725 0.740820
vt 0.897222 0.740820
vt 0.897222 0.783481
vt 0.897222 0.826143
vn 0.0000 0.0000 -1.0000
vn -0.7071 -0.0000 -0.7071
vn -0.7071 -0.0000 0.7071
vn 0.7071 0.0000 -0.7071
vn -0.0000 1.0000 0.0000
vn 0.0000 0.0000 1.0000
vn 1.0000 0.0000 0.0000
vn 0.7071 -0.0000 0.7071
vn -1.0000 0.0000 0.0000
vn 0.6330 0.4457 -0.6330
vn 0.0000 0.4457 -0.8952
vn 0.0000 0.4457 0.8952
vn -0.8952 0.4457 0.0000
vn -0.6330 0.4457 0.6330
vn 0.8952 0.4457 0.0000
vn -0.6330 0.4457 -0.6330
vn 0.6330 0.4457 0.6330
usemtl 0012_Bisque.005
s 1
f 1/1/1 2/2/1 3/3/1 4/4/1 5/5/1
f 3/6/1 2/7/1 1/8/1 6/9/1 7/10/1
f 8/11/2 1/12/2 9/13/2 10/14/2 11/15/2 12/16/2
f 13/17/2 10/18/2 9/19/2 1/20/2 5/21/2
f 14/22/3 15/23/3 16/24/3 17/25/3 18/26/3
f 19/27/3 17/28/3 16/29/3 15/30/3 20/31/3
f 7/32/4 21/33/4 22/34/4 23/35/4 3/36/4
f 22/37/4 21/38/4 7/39/4 24/40/4 25/41/4 26/42/4
f 18/43/5 14/44/5 27/45/5 10/46/5 28/47/5 17/48/5
f 13/49/5 10/50/5 27/51/5 14/52/5 29/53/5 5/54/5
f 4/55/5 5/56/5 29/57/5 14/58/5 30/59/5 3/60/5
f 31/61/5 3/62/5 30/63/5 14/64/5 32/65/5 33/66/5
f 23/67/5 3/68/5 31/69/5 33/70/5 34/71/5 22/72/5
f 35/73/5 22/74/5 34/75/5 33/76/5 36/77/5 37/78/5
f 38/79/6 39/80/6 14/81/6 32/82/6 33/83/6
f 14/84/6 39/85/6 38/86/6 40/87/6 15/88/6
f 35/89/7 22/90/7 41/91/7 42/92/7 37/93/7
f 43/94/7 42/95/7 41/96/7 22/97/7 26/98/7 44/99/7
f 36/100/8 37/101/8 45/102/8 38/103/8 33/104/8
f 46/105/8 38/106/8 45/107/8 37/108/8 42/109/8
f 47/110/9 11/111/9 48/112/9 17/113/9 19/114/9
f 28/115/9 17/116/9 48/117/9 11/118/9 10/119/9
f 49/120/10 50/121/10 51/122/10 52/123/10 53/124/10 54/125/10 55/126/10
f 56/127/11 50/128/11 49/129/11 55/130/11 57/131/11 58/132/11 59/133/11
f 60/134/12 50/135/12 61/136/12 62/137/12 63/138/12 64/139/12 65/140/12
f 66/141/13 67/142/13 68/143/13 69/144/13 70/145/13 50/146/13 71/147/13
f 61/148/14 50/149/14 70/150/14 69/151/14 72/152/14 73/153/14 62/154/14
f 47/155/5 19/156/5 69/157/5 74/158/5 11/159/5
f 75/160/5 69/161/5 19/162/5 20/163/5 15/164/5 76/165/5
f 72/166/5 69/167/5 75/168/5 76/169/5 15/170/5 62/171/5 73/172/5
f 77/173/5 62/174/5 15/175/5 40/176/5 38/177/5 78/178/5
f 63/179/5 62/180/5 77/181/5 78/182/5 38/183/5 65/184/5 64/185/5
f 79/186/5 65/187/5 38/188/5 80/189/5 81/190/5
f 81/191/5 80/192/5 38/193/5 46/194/5 42/195/5
f 82/196/5 81/197/5 42/198/5 83/199/5 84/200/5 52/201/5 85/202/5
f 12/203/5 11/204/5 67/205/5 86/206/5 87/207/5 1/208/5 8/209/5
f 68/210/5 67/211/5 11/212/5 74/213/5 69/214/5
f 58/215/5 1/216/5 87/217/5 86/218/5 67/219/5 88/220/5
f 6/221/5 1/222/5 58/223/5 89/224/5 7/225/5
f 7/226/5 89/227/5 58/228/5 57/229/5 55/230/5
f 90/231/5 7/232/5 55/233/5 54/234/5 53/235/5 52/236/5 91/237/5 92/238/5
f 24/239/5 7/240/5 90/241/5 92/242/5 91/243/5 52/244/5 26/245/5 25/246/5
f 44/247/5 26/248/5 52/249/5 84/250/5 83/251/5 42/252/5 43/253/5
f 85/254/15 52/255/15 51/256/15 50/257/15 93/258/15 81/259/15 82/260/15
f 59/261/16 58/262/16 88/263/16 67/264/16 66/265/16 71/266/16 50/267/16 56/268/16
f 93/269/17 50/270/17 60/271/17 65/272/17 79/273/17 81/274/17
