# Blender v2.83.0 OBJ File: ''
# www.blender.org
mtllib Segrate_Monument_B.mtl
o STLEXP_Object01
v -2.112212 0.004924 -2.432455
v -2.112212 0.004924 2.432450
v -2.112212 24.915073 2.432455
v -2.112212 24.915073 -2.432450
v 2.112212 0.004924 -0.000002
v 2.112212 24.915073 0.000002
v 1.398511 0.004924 -0.000002
v -1.756077 0.004924 1.816434
v -1.756077 24.915073 1.816438
v 1.398511 24.915073 0.000002
v -1.756077 0.004924 -1.816438
v -1.756077 24.915073 -1.816434
vn -1.0000 0.0000 0.0000
vn 0.4990 -0.0000 0.8666
vn 0.4990 0.0000 -0.8666
vn -0.4990 0.0000 -0.8666
vn 1.0000 0.0000 0.0000
vn -0.4990 -0.0000 0.8666
vn 0.0000 -1.0000 -0.0000
vn 0.0000 1.0000 0.0000
usemtl diffuse_Black
s 1
f 1//1 2//1 3//1 4//1
f 2//2 5//2 6//2 3//2
f 5//3 1//3 4//3 6//3
f 7//4 8//4 9//4 10//4
f 8//5 11//5 12//5 9//5
f 11//6 7//6 10//6 12//6
f 11//7 1//7 7//7
f 5//7 7//7 1//7
f 2//7 7//7 5//7
f 2//7 8//7 7//7
f 1//7 8//7 2//7
f 1//7 11//7 8//7
f 12//8 10//8 4//8
f 6//8 4//8 10//8
f 3//8 6//8 10//8
f 3//8 10//8 9//8
f 4//8 3//8 9//8
f 4//8 9//8 12//8
