# Blender v2.83.0 OBJ File: '1.blend'
# www.blender.org
mtllib Segrate_Monument_C.mtl
o STLEXP_Object01.035
v 1.522895 0.000842 -5.229798
v -0.000007 0.000842 -5.229798
v -0.000007 0.470456 -5.229798
v 1.522895 0.470456 -5.229798
v -0.000007 0.000841 -4.725675
v -0.000007 0.470456 -4.725675
v 1.110929 0.000841 -4.725675
v 1.110929 0.470456 -4.725675
v 1.110929 0.000840 5.087338
v 1.110929 0.470454 5.087338
v 1.522895 0.000840 5.087338
v 1.522895 0.470454 5.087338
v -1.522911 0.000840 5.087338
v -1.110945 0.000840 5.087338
v -1.110945 0.470454 5.087338
v -1.522911 0.470454 5.087338
v -1.110945 0.000841 -4.725675
v -1.110945 0.470456 -4.725675
v -1.522911 0.000842 -5.229798
v -1.522911 0.470456 -5.229798
v 1.110945 0.000852 5.087344
v 1.110945 4.039160 5.087345
v 1.522911 4.039160 5.087345
v 1.522911 0.000852 5.087344
v 1.522911 4.039159 5.229798
v 1.522911 0.000852 5.229797
v 0.968491 0.000853 -1.427476
v 0.000008 0.000853 -1.427476
v 0.000008 0.000854 -4.725667
v 1.110945 0.000854 -4.725667
v 0.968491 0.000852 5.229797
v 1.110945 4.039161 -4.725667
v 0.968491 4.039159 5.229798
v 0.000008 4.039161 -4.725667
v 0.000008 4.039161 -1.427475
v 0.968491 4.039161 -1.427475
v 0.000008 2.339666 -4.725667
v 0.000008 2.339666 -4.606635
v 0.000008 0.494155 -4.606635
v 0.000008 0.494155 -4.725667
v 0.354975 0.494155 -4.725667
v 0.354975 2.339666 -4.725667
v 0.354975 2.339666 -4.606635
v 0.354975 0.494155 -4.606635
v -0.968474 0.000852 5.229797
v -0.968474 4.039159 5.229798
v -1.522895 4.039159 5.229798
v -1.522895 0.000852 5.229797
v -1.522895 4.039160 5.087345
v -1.522895 0.000852 5.087344
v -1.110928 0.000854 -4.725667
v -0.968474 0.000853 -1.427476
v -1.110928 0.000852 5.087344
v -0.968474 4.039161 -1.427475
v -1.110928 4.039160 5.087345
v -1.110928 4.039161 -4.725667
v -0.513574 2.339666 -4.725667
v -0.513574 0.494155 -4.725667
v -0.513574 2.339666 -4.606635
v -0.513574 0.494155 -4.606635
v 0.968477 0.000840 -1.427481
v 0.968477 0.000839 5.229793
v -0.968467 0.000839 5.229793
v -0.968467 0.000840 -1.427481
v 0.968477 0.147932 5.229793
v -0.968467 0.147932 5.229793
v 0.968477 0.147932 5.009439
v -0.968467 0.147932 5.009439
v 0.968477 0.349793 5.009439
v -0.968467 0.349793 5.009439
v 0.968477 0.349793 4.810800
v -0.968467 0.349793 4.810800
v 0.968477 0.551654 4.810800
v -0.968467 0.551654 4.810800
v 0.968477 0.551654 4.612157
v -0.968467 0.551654 4.612157
v 0.968477 0.753516 4.612158
v -0.968467 0.753516 4.612158
v 0.968477 0.753516 4.413518
v -0.968467 0.753516 4.413518
v 0.968477 0.955377 4.413518
v -0.968467 0.955377 4.413518
v 0.968477 0.955377 4.214879
v -0.968467 0.955377 4.214879
v 0.968477 1.157238 4.214879
v -0.968467 1.157238 4.214879
v 0.968477 1.157238 4.016239
v -0.968467 1.157238 4.016239
v 0.968477 1.359100 4.016239
v -0.968467 1.359100 4.016239
v 0.968477 1.359100 3.817599
v -0.968467 1.359100 3.817599
v 0.968477 1.560961 3.817599
v -0.968467 1.560961 3.817599
v 0.968477 1.560961 3.618959
v -0.968467 1.560961 3.618959
v 0.968477 1.762822 3.618959
v -0.968467 1.762822 3.618959
v 0.968477 1.762822 3.420320
v -0.968467 1.762822 3.420320
v 0.968477 1.964683 3.420320
v -0.968467 1.964683 3.420320
v 0.968477 1.964684 3.221680
v -0.968467 1.964683 3.221680
v 0.968477 2.166545 3.221680
v -0.968467 2.166545 3.221680
v 0.968477 2.166545 3.023040
v -0.968467 2.166545 3.023040
v 0.968477 2.368406 3.023040
v -0.968467 2.368406 3.023040
v 0.968477 2.368406 2.824400
v -0.968467 2.368406 2.824400
v 0.968477 2.570267 2.824400
v -0.968467 2.570267 2.824400
v 0.968477 2.570268 2.625761
v -0.968467 2.570267 2.625761
v 0.968477 2.772129 2.625761
v -0.968467 2.772129 2.625761
v 0.968477 2.772129 2.427121
v -0.968467 2.772129 2.427121
v 0.968477 2.973990 2.427121
v -0.968467 2.973990 2.427121
v 0.968477 2.973990 2.228479
v -0.968467 2.973990 2.228479
v 0.968477 3.175851 2.228479
v -0.968467 3.175851 2.228479
v 0.968477 3.173802 -1.427480
v -0.968467 3.173802 -1.427480
vn 0.0000 0.0000 -1.0000
vn 0.0000 0.0000 1.0000
vn -1.0000 0.0000 0.0000
vn 1.0000 0.0000 0.0000
vn 0.0000 -1.0000 -0.0000
vn -0.0000 1.0000 0.0000
vn 0.0000 1.0000 -0.0006
usemtl diffuse_Black.007
s 1
f 1//1 2//1 3//1 4//1
f 5//2 7//2 8//2 6//2
f 7//3 9//3 10//3 8//3
f 9//2 11//2 12//2 10//2
f 11//4 1//4 4//4 12//4
f 13//2 14//2 15//2 16//2
f 14//4 17//4 18//4 15//4
f 17//2 5//2 6//2 18//2
f 5//4 2//4 3//4 6//4
f 2//1 19//1 20//1 3//1
f 19//3 13//3 16//3 20//3
f 1//5 11//5 9//5 7//5 5//5 2//5
f 19//5 2//5 5//5 17//5 14//5 13//5
f 10//6 12//6 4//6 3//6 6//6 8//6
f 6//6 3//6 20//6 16//6 15//6 18//6
f 21//1 22//1 23//1 24//1
f 24//4 23//4 25//4 26//4
f 27//5 28//5 29//5 30//5 21//5 24//5 26//5 31//5
f 30//4 32//4 22//4 21//4
f 33//6 25//6 23//6 22//6 32//6 34//6 35//6 36//6
f 26//2 25//2 33//2 31//2
f 31//3 33//3 36//3 27//3
f 27//2 36//2 35//2 28//2
f 30//1 29//1 40//1 41//1 42//1 37//1 34//1 32//1
f 37//5 42//5 43//5 38//5
f 38//1 43//1 44//1 39//1
f 40//6 39//6 44//6 41//6
f 45//2 46//2 47//2 48//2
f 48//3 47//3 49//3 50//3
f 51//5 29//5 28//5 52//5 45//5 48//5 50//5 53//5
f 52//4 54//4 46//4 45//4
f 55//6 49//6 47//6 46//6 54//6 35//6 34//6 56//6
f 50//1 49//1 55//1 53//1
f 53//3 55//3 56//3 51//3
f 56//1 34//1 37//1 57//1 58//1 40//1 29//1 51//1
f 28//4 29//4 40//4 39//4 38//4 37//4 34//4 35//4
f 28//2 35//2 54//2 52//2
f 57//4 59//4 60//4 58//4
f 40//6 58//6 60//6 39//6
f 59//1 38//1 39//1 60//1
f 37//5 38//5 59//5 57//5
f 61//5 62//5 63//5 64//5
f 62//2 65//2 66//2 63//2
f 65//6 67//6 68//6 66//6
f 67//2 69//2 70//2 68//2
f 69//6 71//6 72//6 70//6
f 71//2 73//2 74//2 72//2
f 73//6 75//6 76//6 74//6
f 75//2 77//2 78//2 76//2
f 77//6 79//6 80//6 78//6
f 79//2 81//2 82//2 80//2
f 81//6 83//6 84//6 82//6
f 83//2 85//2 86//2 84//2
f 85//6 87//6 88//6 86//6
f 87//2 89//2 90//2 88//2
f 89//6 91//6 92//6 90//6
f 91//2 93//2 94//2 92//2
f 93//6 95//6 96//6 94//6
f 95//2 97//2 98//2 96//2
f 97//6 99//6 100//6 98//6
f 99//2 101//2 102//2 100//2
f 101//6 103//6 104//6 102//6
f 103//2 105//2 106//2 104//2
f 105//6 107//6 108//6 106//6
f 107//2 109//2 110//2 108//2
f 109//6 111//6 112//6 110//6
f 111//2 113//2 114//2 112//2
f 113//6 115//6 116//6 114//6
f 115//2 117//2 118//2 116//2
f 117//6 119//6 120//6 118//6
f 119//2 121//2 122//2 120//2
f 121//6 123//6 124//6 122//6
f 123//2 125//2 126//2 124//2
f 125//7 127//7 128//7 126//7
f 127//1 61//1 64//1 128//1
f 127//4 125//4 123//4 75//4 73//4 71//4 69//4 67//4 65//4 62//4 61//4
f 123//4 121//4 119//4 117//4 115//4
f 124//3 126//3 128//3 64//3 63//3 66//3 68//3 70//3 72//3 74//3 76//3
f 120//3 122//3 124//3 116//3 118//3
f 41//3 44//3 43//3
f 43//3 42//3 41//3
f 111//4 115//4 113//4
f 107//4 111//4 109//4
f 103//4 107//4 105//4
f 99//4 103//4 101//4
f 95//4 99//4 97//4
f 91//4 95//4 93//4
f 87//4 91//4 89//4
f 83//4 87//4 85//4
f 79//4 83//4 81//4
f 75//4 79//4 77//4
f 112//3 114//3 116//3
f 108//3 110//3 112//3
f 104//3 106//3 108//3
f 100//3 102//3 104//3
f 96//3 98//3 100//3
f 92//3 94//3 96//3
f 88//3 90//3 92//3
f 84//3 86//3 88//3
f 80//3 82//3 84//3
f 76//3 78//3 80//3
