# Blender v2.83.0 OBJ File: '1.blend'
# www.blender.org
mtllib Segrate_Monument_A.mtl
o STLEXP_Object01.034
v 0.000001 0.823479 3.883260
v 0.422789 0.823479 3.860453
v 0.422789 13.621777 3.860455
v 0.000001 13.621777 3.883262
v 0.832469 0.823479 3.793606
v 0.832469 13.621777 3.793608
v 1.226667 0.823479 3.685102
v 1.226667 13.621777 3.685104
v 1.603003 0.823479 3.537324
v 1.603003 13.621777 3.537326
v 1.959097 0.823479 3.352654
v 1.959097 13.621777 3.352656
v 2.292568 0.823479 3.133457
v 2.292568 13.621777 3.133459
v 2.601039 0.823479 2.882126
v 2.601039 13.621777 2.882128
v 2.882132 0.823479 2.601041
v 2.882132 13.621777 2.601043
v 3.133459 0.823479 2.292570
v 3.133459 13.621777 2.292572
v 3.352652 0.823479 1.959095
v 3.352652 13.621777 1.959097
v 3.537326 0.823479 1.603006
v 3.537326 13.621777 1.603008
v 3.685104 0.823479 1.226669
v 3.685104 13.621778 1.226671
v 3.793604 0.823479 0.832467
v 3.793604 13.621778 0.832469
v 3.860451 0.823479 0.422783
v 3.860451 13.621778 0.422785
v 3.883262 0.823479 -0.000001
v 3.883262 13.621778 0.000001
v 3.860451 0.823479 -0.422785
v 3.860451 13.621778 -0.422783
v 3.793604 0.823479 -0.832469
v 3.793604 13.621778 -0.832467
v 3.685104 0.823479 -1.226671
v 3.685104 13.621778 -1.226669
v 3.537326 0.823480 -1.603008
v 3.537326 13.621778 -1.603006
v 3.352652 0.823480 -1.959096
v 3.352652 13.621778 -1.959094
v 3.133459 0.823480 -2.292572
v 3.133459 13.621778 -2.292570
v 2.882128 0.823480 -2.601043
v 2.882128 13.621778 -2.601041
v 2.601039 0.823480 -2.882128
v 2.601039 13.621778 -2.882126
v 2.292568 0.823480 -3.133459
v 2.292568 13.621778 -3.133457
v 1.959097 0.823480 -3.352656
v 1.959097 13.621778 -3.352654
v 1.603003 0.823480 -3.537326
v 1.603003 13.621778 -3.537324
v 1.226667 0.823480 -3.685104
v 1.226667 13.621778 -3.685102
v 0.832469 0.823480 -3.793608
v 0.832469 13.621778 -3.793606
v 0.422789 0.823480 -3.860455
v 0.422789 13.621778 -3.860453
v 0.000001 0.823480 -3.883262
v 0.000001 13.621778 -3.883260
v -0.422787 0.823480 -3.860455
v -0.422787 13.621778 -3.860453
v -0.832467 0.823480 -3.793608
v -0.832467 13.621778 -3.793606
v -1.226667 0.823480 -3.685104
v -1.226667 13.621778 -3.685102
v -1.603003 0.823480 -3.537326
v -1.603003 13.621778 -3.537324
v -1.959095 0.823480 -3.352656
v -1.959095 13.621778 -3.352654
v -2.292566 0.823480 -3.133459
v -2.292566 13.621778 -3.133457
v -2.601037 0.823480 -2.882128
v -2.601037 13.621778 -2.882126
v -2.882128 0.823480 -2.601043
v -2.882128 13.621778 -2.601041
v -3.133459 0.823480 -2.292572
v -3.133459 13.621778 -2.292570
v -3.352652 0.823480 -1.959096
v -3.352652 13.621778 -1.959094
v -3.537326 0.823480 -1.603008
v -3.537326 13.621778 -1.603006
v -3.685104 0.823479 -1.226671
v -3.685104 13.621778 -1.226669
v -3.793606 0.823479 -0.832469
v -3.793606 13.621778 -0.832467
v -3.860451 0.823479 -0.422785
v -3.860451 13.621778 -0.422783
v -3.883262 0.823479 -0.000001
v -3.883262 13.621778 0.000001
v -3.860451 0.823479 0.422783
v -3.860451 13.621778 0.422785
v -3.793606 0.823479 0.832467
v -3.793606 13.621778 0.832469
v -3.685104 0.823479 1.226669
v -3.685104 13.621778 1.226671
v -3.537328 0.823479 1.603006
v -3.537328 13.621777 1.603008
v -3.352652 0.823479 1.959095
v -3.352652 13.621777 1.959097
v -3.133459 0.823479 2.292570
v -3.133459 13.621777 2.292572
v -2.882128 0.823479 2.601041
v -2.882128 13.621777 2.601043
v -2.601037 0.823479 2.882126
v -2.601037 13.621777 2.882128
v -2.292566 0.823479 3.133457
v -2.292566 13.621777 3.133459
v -1.959095 0.823479 3.352654
v -1.959095 13.621777 3.352656
v -1.603001 0.823479 3.537324
v -1.603001 13.621777 3.537326
v -1.226667 0.823479 3.685102
v -1.226667 13.621777 3.685104
v -0.832467 0.823479 3.793606
v -0.832467 13.621777 3.793608
v -0.422787 0.823479 3.860453
v -0.422787 13.621777 3.860455
v -4.659651 -0.006897 -4.659651
v -4.659651 -0.006899 4.659649
v -4.659651 0.823478 4.659649
v -4.659651 0.823480 -4.659651
v 4.659651 -0.006899 4.659649
v 4.659651 0.823478 4.659649
v 4.659651 -0.006897 -4.659651
v 4.659651 0.823480 -4.659651
v 0.000001 13.621775 3.072758
v 0.334546 13.621775 3.054708
v 0.334546 14.086897 3.054708
v 0.000001 14.086897 3.072759
v 0.658719 13.621775 3.001820
v 0.658719 14.086897 3.001821
v 0.970642 13.621775 2.915964
v 0.970642 14.086897 2.915964
v 1.268429 13.621775 2.799032
v 1.268429 14.086897 2.799033
v 1.550200 13.621775 2.652904
v 1.550200 14.086897 2.652905
v 1.814071 13.621775 2.479457
v 1.814071 14.086897 2.479457
v 2.058159 13.621775 2.280583
v 2.058159 14.086897 2.280584
v 2.280584 13.621775 2.058162
v 2.280584 14.086897 2.058163
v 2.479457 13.621775 1.814071
v 2.479457 14.086897 1.814071
v 2.652900 13.621775 1.550204
v 2.652900 14.086897 1.550204
v 2.799028 13.621776 1.268429
v 2.799028 14.086898 1.268429
v 2.915964 13.621776 0.970642
v 2.915964 14.086898 0.970642
v 3.001820 13.621776 0.658719
v 3.001820 14.086898 0.658719
v 3.054713 13.621776 0.334546
v 3.054713 14.086898 0.334546
v 3.072763 13.621776 0.000001
v 3.072763 14.086898 0.000001
v 3.054713 13.621776 -0.334544
v 3.054713 14.086898 -0.334544
v 3.001820 13.621776 -0.658716
v 3.001820 14.086898 -0.658716
v 2.915964 13.621776 -0.970639
v 2.915964 14.086898 -0.970639
v 2.799028 13.621776 -1.268427
v 2.799028 14.086898 -1.268427
v 2.652900 13.621777 -1.550202
v 2.652900 14.086899 -1.550202
v 2.479457 13.621777 -1.814069
v 2.479457 14.086899 -1.814069
v 2.280584 13.621777 -2.058161
v 2.280584 14.086899 -2.058160
v 2.058159 13.621777 -2.280581
v 2.058159 14.086899 -2.280581
v 1.814071 13.621777 -2.479455
v 1.814071 14.086899 -2.479455
v 1.550200 13.621777 -2.652902
v 1.550200 14.086899 -2.652902
v 1.268429 13.621777 -2.799031
v 1.268429 14.086899 -2.799030
v 0.970642 13.621777 -2.915962
v 0.970642 14.086899 -2.915962
v 0.658719 13.621777 -3.001818
v 0.658719 14.086899 -3.001818
v 0.334546 13.621777 -3.054706
v 0.334546 14.086899 -3.054706
v 0.000001 13.621777 -3.072757
v 0.000001 14.086899 -3.072756
v -0.334544 13.621777 -3.054706
v -0.334544 14.086899 -3.054706
v -0.658719 13.621777 -3.001818
v -0.658719 14.086899 -3.001818
v -0.970642 13.621777 -2.915962
v -0.970642 14.086899 -2.915962
v -1.268429 13.621777 -2.799031
v -1.268429 14.086899 -2.799030
v -1.550200 13.621777 -2.652902
v -1.550200 14.086899 -2.652902
v -1.814071 13.621777 -2.479455
v -1.814071 14.086899 -2.479455
v -2.058159 13.621777 -2.280581
v -2.058159 14.086899 -2.280581
v -2.280581 13.621777 -2.058161
v -2.280581 14.086899 -2.058160
v -2.479455 13.621777 -1.814069
v -2.479455 14.086899 -1.814069
v -2.652898 13.621777 -1.550202
v -2.652898 14.086899 -1.550202
v -2.799028 13.621776 -1.268427
v -2.799028 14.086898 -1.268427
v -2.915962 13.621776 -0.970639
v -2.915962 14.086898 -0.970639
v -3.001818 13.621776 -0.658716
v -3.001818 14.086898 -0.658716
v -3.054710 13.621776 -0.334544
v -3.054710 14.086898 -0.334544
v -3.072761 13.621776 0.000001
v -3.072761 14.086898 0.000001
v -3.054710 13.621776 0.334546
v -3.054710 14.086898 0.334546
v -3.001818 13.621776 0.658719
v -3.001818 14.086898 0.658719
v -2.915962 13.621776 0.970642
v -2.915962 14.086898 0.970642
v -2.799028 13.621776 1.268429
v -2.799028 14.086898 1.268429
v -2.652898 13.621775 1.550204
v -2.652898 14.086897 1.550204
v -2.479455 13.621775 1.814071
v -2.479455 14.086897 1.814071
v -2.280581 13.621775 2.058162
v -2.280581 14.086897 2.058163
v -2.058159 13.621775 2.280583
v -2.058159 14.086897 2.280584
v -1.814071 13.621775 2.479457
v -1.814071 14.086897 2.479457
v -1.550200 13.621775 2.652904
v -1.550200 14.086897 2.652905
v -1.268429 13.621775 2.799032
v -1.268429 14.086897 2.799033
v -0.970642 13.621775 2.915964
v -0.970642 14.086897 2.915964
v -0.658719 13.621775 3.001820
v -0.658719 14.086897 3.001821
v -0.334544 13.621775 3.054708
v -0.334544 14.086897 3.054708
vn 0.0180 0.0000 0.9998
vn 0.1255 -0.0000 0.9921
vn 0.0897 -0.0000 0.9960
vn 0.0539 -0.0000 0.9985
vn 0.2309 -0.0000 0.9730
vn 0.1960 -0.0000 0.9806
vn 0.3325 -0.0000 0.9431
vn 0.2991 -0.0000 0.9542
vn 0.4293 -0.0000 0.9032
vn 0.3976 -0.0000 0.9176
vn 0.5203 -0.0000 0.8540
vn 0.4906 -0.0000 0.8714
vn 0.6049 -0.0000 0.7963
vn 0.5774 -0.0000 0.8165
vn 0.6827 -0.0000 0.7307
vn 0.6576 -0.0000 0.7534
vn 0.7534 -0.0000 0.6575
vn 0.7306 -0.0000 0.6828
vn 0.8165 -0.0000 0.5774
vn 0.7963 -0.0000 0.6049
vn 0.8714 -0.0000 0.4906
vn 0.8540 -0.0000 0.5203
vn 0.9176 -0.0000 0.3976
vn 0.9032 -0.0000 0.4293
vn 0.9542 -0.0000 0.2991
vn 0.9431 -0.0000 0.3325
vn 0.9806 -0.0000 0.1960
vn 0.9730 -0.0000 0.2309
vn 0.9960 -0.0000 0.0897
vn 0.9921 -0.0000 0.1255
vn 0.9998 0.0000 -0.0180
vn 0.9998 0.0000 0.0180
vn 0.9921 0.0000 -0.1255
vn 0.9960 0.0000 -0.0897
vn 0.9730 0.0000 -0.2309
vn 0.9806 0.0000 -0.1960
vn 0.9431 0.0000 -0.3325
vn 0.9542 0.0000 -0.2991
vn 0.9032 0.0000 -0.4293
vn 0.9176 0.0000 -0.3976
vn 0.8540 0.0000 -0.5203
vn 0.8714 0.0000 -0.4906
vn 0.7963 0.0000 -0.6049
vn 0.8165 0.0000 -0.5774
vn 0.7306 0.0000 -0.6828
vn 0.7534 0.0000 -0.6576
vn 0.6576 0.0000 -0.7534
vn 0.6827 0.0000 -0.7307
vn 0.5774 0.0000 -0.8165
vn 0.6049 0.0000 -0.7963
vn 0.4906 0.0000 -0.8714
vn 0.5203 0.0000 -0.8540
vn 0.3976 0.0000 -0.9176
vn 0.4293 0.0000 -0.9032
vn 0.2991 0.0000 -0.9542
vn 0.3325 0.0000 -0.9431
vn 0.1960 0.0000 -0.9806
vn 0.2309 0.0000 -0.9730
vn 0.0897 0.0000 -0.9960
vn 0.1255 0.0000 -0.9921
vn -0.0180 0.0000 -0.9998
vn 0.0180 0.0000 -0.9998
vn -0.1255 0.0000 -0.9921
vn -0.0897 0.0000 -0.9960
vn -0.2309 0.0000 -0.9730
vn -0.1960 0.0000 -0.9806
vn -0.3325 0.0000 -0.9431
vn -0.2991 0.0000 -0.9542
vn -0.4293 0.0000 -0.9032
vn -0.3976 0.0000 -0.9176
vn -0.5203 0.0000 -0.8540
vn -0.4906 0.0000 -0.8714
vn -0.6049 0.0000 -0.7963
vn -0.5774 0.0000 -0.8165
vn -0.6827 0.0000 -0.7307
vn -0.6576 0.0000 -0.7534
vn -0.7534 0.0000 -0.6576
vn -0.7307 0.0000 -0.6827
vn -0.8165 0.0000 -0.5774
vn -0.7963 0.0000 -0.6049
vn -0.8714 0.0000 -0.4906
vn -0.8540 0.0000 -0.5203
vn -0.9176 0.0000 -0.3976
vn -0.9032 0.0000 -0.4293
vn -0.9542 0.0000 -0.2991
vn -0.9431 0.0000 -0.3325
vn -0.9806 0.0000 -0.1960
vn -0.9730 0.0000 -0.2309
vn -0.9960 0.0000 -0.0897
vn -0.9921 0.0000 -0.1255
vn -0.9998 0.0000 0.0180
vn -0.9998 0.0000 -0.0180
vn -0.9921 -0.0000 0.1255
vn -0.9960 -0.0000 0.0897
vn -0.9730 -0.0000 0.2309
vn -0.9806 -0.0000 0.1960
vn -0.9431 -0.0000 0.3325
vn -0.9542 -0.0000 0.2991
vn -0.9032 -0.0000 0.4293
vn -0.9176 -0.0000 0.3976
vn -0.8540 -0.0000 0.5203
vn -0.8714 -0.0000 0.4906
vn -0.7963 -0.0000 0.6049
vn -0.8165 -0.0000 0.5774
vn -0.7753 -0.0000 0.6316
vn -0.7534 -0.0000 0.6576
vn -0.7071 -0.0000 0.7071
vn -0.6576 -0.0000 0.7534
vn -0.6827 -0.0000 0.7307
vn -0.6316 -0.0000 0.7753
vn -0.6049 -0.0000 0.7963
vn -0.5493 -0.0000 0.8356
vn -0.4906 -0.0000 0.8714
vn -0.5203 -0.0000 0.8540
vn -0.3976 -0.0000 0.9176
vn -0.4293 -0.0000 0.9032
vn -0.2991 -0.0000 0.9542
vn -0.3325 -0.0000 0.9431
vn -0.1960 -0.0000 0.9806
vn -0.2309 -0.0000 0.9730
vn -0.0897 -0.0000 0.9960
vn -0.1255 -0.0000 0.9921
vn -0.0539 -0.0000 0.9985
vn 0.0000 -1.0000 -0.0000
vn 0.0000 1.0000 -0.0000
vn -1.0000 0.0000 0.0000
vn 0.0000 0.0000 1.0000
vn 1.0000 0.0000 0.0000
vn 0.0000 0.0000 -1.0000
vn 0.7534 0.0000 -0.6575
vn -0.7306 0.0000 -0.6828
vn -0.8356 0.0000 0.5493
vn -0.5202 -0.0000 0.8540
vn -0.4604 -0.0000 0.8877
vn -0.3655 -0.0000 0.9308
vn -0.2654 -0.0000 0.9641
vn 0.0000 1.0000 -0.0001
usemtl diffuse_Black.006
s 1
f 1//1 2//2 3//3 4//4
f 2//2 5//5 6//6 3//3
f 5//5 7//7 8//8 6//6
f 7//7 9//9 10//10 8//8
f 9//9 11//11 12//12 10//10
f 11//11 13//13 14//14 12//12
f 13//13 15//15 16//16 14//14
f 15//15 17//17 18//18 16//16
f 17//17 19//19 20//20 18//18
f 19//19 21//21 22//22 20//20
f 21//21 23//23 24//24 22//22
f 23//23 25//25 26//26 24//24
f 25//25 27//27 28//28 26//26
f 27//27 29//29 30//30 28//28
f 29//29 31//31 32//32 30//30
f 31//31 33//33 34//34 32//32
f 33//33 35//35 36//36 34//34
f 35//35 37//37 38//38 36//36
f 37//37 39//39 40//40 38//38
f 39//39 41//41 42//42 40//40
f 41//41 43//43 44//44 42//42
f 43//43 45//45 46//46 44//44
f 45//45 47//47 48//48 46//46
f 47//47 49//49 50//50 48//48
f 49//49 51//51 52//52 50//50
f 51//51 53//53 54//54 52//52
f 53//53 55//55 56//56 54//54
f 55//55 57//57 58//58 56//56
f 57//57 59//59 60//60 58//58
f 59//59 61//61 62//62 60//60
f 61//61 63//63 64//64 62//62
f 63//63 65//65 66//66 64//64
f 65//65 67//67 68//68 66//66
f 67//67 69//69 70//70 68//68
f 69//69 71//71 72//72 70//70
f 71//71 73//73 74//74 72//72
f 73//73 75//75 76//76 74//74
f 75//75 77//77 78//78 76//76
f 77//77 79//79 80//80 78//78
f 79//79 81//81 82//82 80//80
f 81//81 83//83 84//84 82//82
f 83//83 85//85 86//86 84//84
f 85//85 87//87 88//88 86//86
f 87//87 89//89 90//90 88//88
f 89//89 91//91 92//92 90//90
f 91//91 93//93 94//94 92//92
f 93//93 95//95 96//96 94//94
f 95//95 97//97 98//98 96//96
f 97//97 99//99 100//100 98//98
f 99//99 101//101 102//102 100//100
f 101//101 103//103 104//104 102//102
f 103//103 105//105 106//106 104//104
f 105//107 107//108 108//109 106//106
f 107//108 109//110 110//111 108//109
f 109//112 111//113 112//114 110//111
f 111//113 113//115 114//116 112//114
f 113//115 115//117 116//118 114//116
f 115//117 117//119 118//120 116//118
f 117//119 119//121 120//122 118//120
f 119//121 1//1 4//123 120//122
f 5//124 2//124 1//124 119//124 117//124 115//124 113//124 111//124 109//124 107//124 105//124 103//124 101//124 99//124 97//124 95//124 93//124 91//124 89//124 87//124 85//124 83//124 81//124 79//124 77//124 75//124 73//124 71//124 69//124 67//124 65//124 63//124 61//124 59//124 57//124 55//124 53//124 51//124 49//124 47//124 45//124 43//124 41//124 39//124 37//124 35//124 33//124 31//124 29//124 27//124 25//124 23//124 21//124 19//124 17//124 15//124 13//124 11//124 9//124 7//124
f 4//125 6//125 8//125 10//125 12//125 14//125 16//125 18//125 20//125 22//125 24//125 26//125 28//125 30//125 32//125 34//125 36//125 38//125 40//125 42//125 44//125 46//125 48//125 50//125 52//125 54//125 56//125 58//125 60//125 62//125 64//125 66//125 68//125 70//125 72//125 74//125 76//125 78//125 80//125 82//125 84//125 86//125 88//125 90//125 92//125 94//125 96//125 98//125 100//125 102//125 104//125 106//125 108//125 110//125 112//125 114//125 116//125 118//125 120//125
f 121//126 122//126 123//126 124//126
f 122//127 125//127 126//127 123//127
f 125//128 127//128 128//128 126//128
f 127//129 121//129 124//129 128//129
f 121//124 127//124 125//124 122//124
f 126//125 128//125 124//125 123//125
f 129//1 130//2 131//3 132//4
f 130//2 133//5 134//6 131//3
f 133//5 135//7 136//8 134//6
f 135//7 137//9 138//10 136//8
f 137//9 139//11 140//12 138//10
f 139//11 141//13 142//14 140//12
f 141//13 143//15 144//16 142//14
f 143//15 145//17 146//18 144//16
f 145//17 147//19 148//20 146//18
f 147//19 149//21 150//22 148//20
f 149//21 151//23 152//24 150//22
f 151//23 153//25 154//26 152//24
f 153//25 155//27 156//28 154//26
f 155//27 157//29 158//30 156//28
f 157//29 159//31 160//32 158//30
f 159//31 161//33 162//34 160//32
f 161//33 163//35 164//36 162//34
f 163//35 165//37 166//38 164//36
f 165//37 167//39 168//40 166//38
f 167//39 169//41 170//42 168//40
f 169//41 171//43 172//44 170//42
f 171//43 173//45 174//130 172//44
f 173//45 175//47 176//48 174//130
f 175//47 177//49 178//50 176//48
f 177//49 179//51 180//52 178//50
f 179//51 181//53 182//54 180//52
f 181//53 183//55 184//56 182//54
f 183//55 185//57 186//58 184//56
f 185//57 187//59 188//60 186//58
f 187//59 189//61 190//62 188//60
f 189//61 191//63 192//64 190//62
f 191//63 193//65 194//66 192//64
f 193//65 195//67 196//68 194//66
f 195//67 197//69 198//70 196//68
f 197//69 199//71 200//72 198//70
f 199//71 201//73 202//74 200//72
f 201//73 203//75 204//76 202//74
f 203//75 205//77 206//131 204//76
f 205//77 207//79 208//80 206//131
f 207//79 209//81 210//82 208//80
f 209//81 211//83 212//84 210//82
f 211//83 213//85 214//86 212//84
f 213//85 215//87 216//88 214//86
f 215//87 217//89 218//90 216//88
f 217//89 219//91 220//92 218//90
f 219//91 221//93 222//94 220//92
f 221//93 223//95 224//96 222//94
f 223//95 225//97 226//98 224//96
f 225//97 227//99 228//100 226//98
f 227//99 229//101 230//102 228//100
f 229//101 231//132 232//104 230//102
f 231//105 233//105 234//106 232//104
f 233//107 235//108 236//109 234//106
f 235//108 237//110 238//111 236//109
f 237//112 239//112 240//133 238//111
f 239//134 241//115 242//116 240//114
f 241//115 243//135 244//118 242//116
f 243//136 245//119 246//120 244//118
f 245//119 247//121 248//122 246//120
f 247//121 129//1 132//123 248//122
f 129//124 247//124 245//124 243//124 241//124 239//124 237//124 235//124 233//124 231//124 229//124 227//124 225//124 223//124 221//124 219//124 217//124 215//124 213//124 211//124 209//124 207//124 205//124 203//124 201//124 199//124 197//124 195//124 193//124 191//124 189//124 187//124 185//124 183//124 181//124 179//124 177//124 175//124 173//124 171//124 169//124 167//124 165//124 163//124 161//124 159//124 157//124 155//124 153//124 151//124 149//124 147//124 145//124 143//124 141//124 139//124 137//124 135//124 133//124 130//124
f 246//125 248//125 132//125 131//125 134//125 136//125 138//125 140//125 142//125 144//125 146//125 148//125 150//125 152//125 154//125 156//125 158//125 160//125 162//125 164//125 166//125 168//125 170//125 172//125 174//125 176//125 178//125 180//125 182//125 184//125 186//125 188//125 190//125 192//125 194//125 196//125 198//125 200//125 202//125 204//125 206//125 208//125 210//125 212//125 214//125 216//125 218//125 220//125 222//125 224//125 226//125 228//125 230//125 232//125 234//125 236//125 238//125 240//125 242//125 244//125
f 4//125 3//137 6//125
