# Blender v2.83.0 OBJ File: '1.blend'
# www.blender.org
mtllib Stair_A.mtl
o object_1.006
v 4.050000 1.045000 -0.250000
v 4.050000 1.045000 0.250000
v 4.050000 0.695000 0.250000
v 4.050000 0.695000 0.750000
v 4.050000 0.345000 0.750000
v 4.050000 0.345000 1.250000
v 4.050000 -0.005000 1.250000
v 4.050000 -0.005000 -1.250000
v 4.050000 1.745000 -1.250000
v 4.050000 1.745000 -0.750000
v 4.050000 1.395000 -0.750000
v 4.050000 1.395000 -0.250000
v -4.050000 0.695000 0.250000
v -4.050000 1.045000 0.250000
v -4.050000 1.045000 -0.250000
v -4.050000 1.395000 -0.250000
v -4.050000 1.395000 -0.750000
v -4.050000 1.745000 -0.750000
v -4.050000 1.745000 -1.250000
v -4.050000 -0.005000 -1.250000
v -4.050000 -0.005000 1.250000
v -4.050000 0.345000 1.250000
v -4.050000 0.345000 0.750000
v -4.050000 0.695000 0.750000
v 3.200000 1.395000 -0.750000
v 3.200000 1.575000 -0.750000
v 3.200000 1.575000 -0.500000
v 3.200000 1.395000 -0.500000
v 2.100000 1.575000 -0.500000
v 2.100000 1.575000 -0.750000
v 2.100000 1.395000 -0.750000
v 2.100000 1.395000 -0.500000
v 3.200000 1.045000 -0.250000
v 3.200000 1.225000 -0.250000
v 3.200000 1.225000 0.000000
v 3.200000 1.045000 0.000000
v 2.100000 1.225000 0.000000
v 2.100000 1.225000 -0.250000
v 2.100000 1.045000 -0.250000
v 2.100000 1.045000 0.000000
v 3.200000 0.695000 0.250000
v 3.200000 0.875000 0.250000
v 3.200000 0.875000 0.500000
v 3.200000 0.695000 0.500000
v 2.100000 0.875000 0.500000
v 2.100000 0.875000 0.250000
v 2.100000 0.695000 0.250000
v 2.100000 0.695000 0.500000
v 3.200000 0.345000 0.750000
v 3.200000 0.525000 0.750000
v 3.200000 0.525000 1.000000
v 3.200000 0.345000 1.000000
v 2.100000 0.525000 1.000000
v 2.100000 0.525000 0.750000
v 2.100000 0.345000 0.750000
v 2.100000 0.345000 1.000000
vt 0.176471 0.939655
vt 0.117647 0.939655
vt 0.117647 0.909483
vt 0.058824 0.909483
vt 0.058824 0.879310
vt 0.000000 0.879310
vt 0.000000 0.849138
vt 0.294118 0.849138
vt 0.294118 1.000000
vt 0.235294 1.000000
vt 0.235294 0.969828
vt 0.176471 0.969828
vt 0.117647 0.939655
vt 0.117647 0.909483
vt 0.176471 0.909483
vt 0.176471 0.879310
vt 0.235294 0.879310
vt 0.235294 0.849138
vt 0.294118 0.849138
vt 0.294118 1.000000
vt 0.000000 1.000000
vt 0.000000 0.969828
vt 0.058824 0.969828
vt 0.058824 0.939655
vt 0.000000 0.000000
vt 0.083333 0.000000
vt 0.083333 0.849137
vt 0.000000 0.849137
vt 0.166667 0.000000
vt 0.166667 0.849137
vt 0.250000 0.000000
vt 0.250000 0.849137
vt 0.333333 0.000000
vt 0.333333 0.849137
vt 0.416667 0.000000
vt 0.416667 0.849137
vt 0.500000 0.000000
vt 0.500000 0.849137
vt 0.583333 0.000000
vt 0.583333 0.849137
vt 0.666667 0.000000
vt 0.666667 0.849137
vt 0.750000 0.000000
vt 0.750000 0.849137
vt 0.833333 0.000000
vt 0.833333 0.849137
vt 0.916667 0.000000
vt 0.916667 0.849137
vt 1.000000 0.000000
vt 1.000000 0.849137
vt 1.000000 0.227273
vt 0.852459 0.227273
vt 0.852459 0.000000
vt 1.000000 0.000000
vt 0.852459 1.000000
vt 0.852459 0.772727
vt 1.000000 0.772727
vt 1.000000 1.000000
vt 0.000000 0.000000
vt 0.213115 0.000000
vt 0.213115 1.000000
vt 0.000000 1.000000
vt 0.426229 0.000000
vt 0.426229 1.000000
vt 0.639344 0.000000
vt 0.639344 1.000000
vt 0.852458 0.000000
vt 0.852458 1.000000
vt 1.000000 0.227273
vt 0.852459 0.227273
vt 0.852459 0.000000
vt 1.000000 0.000000
vt 0.852459 1.000000
vt 0.852459 0.772727
vt 1.000000 0.772727
vt 1.000000 1.000000
vt 0.000000 0.000000
vt 0.213115 0.000000
vt 0.213115 1.000000
vt 0.000000 1.000000
vt 0.426229 0.000000
vt 0.426229 1.000000
vt 0.639344 0.000000
vt 0.639344 1.000000
vt 0.852458 0.000000
vt 0.852458 1.000000
vt 1.000000 0.227273
vt 0.852459 0.227273
vt 0.852459 0.000000
vt 1.000000 0.000000
vt 0.852459 1.000000
vt 0.852459 0.772727
vt 1.000000 0.772727
vt 1.000000 1.000000
vt 0.000000 0.000000
vt 0.213115 0.000000
vt 0.213115 1.000000
vt 0.000000 1.000000
vt 0.426229 0.000000
vt 0.426229 1.000000
vt 0.639344 0.000000
vt 0.639344 1.000000
vt 0.852458 0.000000
vt 0.852458 1.000000
vt 1.000000 0.227273
vt 0.852459 0.227273
vt 0.852459 0.000000
vt 1.000000 0.000000
vt 0.852459 1.000000
vt 0.852459 0.772727
vt 1.000000 0.772727
vt 1.000000 1.000000
vt 0.000000 0.000000
vt 0.213115 0.000000
vt 0.213115 1.000000
vt 0.000000 1.000000
vt 0.426229 0.000000
vt 0.426229 1.000000
vt 0.639344 0.000000
vt 0.639344 1.000000
vt 0.852458 0.000000
vt 0.852458 1.000000
vn 1.0000 -0.0000 0.0000
vn -1.0000 0.0000 0.0000
vn 0.0000 -1.0000 -0.0000
vn 0.0000 0.0000 1.0000
vn 0.0000 1.0000 0.0000
vn 0.0000 0.0000 -1.0000
usemtl diffuse_Black.008
s 1
f 1/1/1 2/2/1 3/3/1 4/4/1 5/5/1 6/6/1 7/7/1 8/8/1 9/9/1 10/10/1 11/11/1 12/12/1
f 13/13/2 14/14/2 15/15/2 16/16/2 17/17/2 18/18/2 19/19/2 20/20/2 21/21/2 22/22/2 23/23/2 24/24/2
f 8/25/3 7/26/3 21/27/3 20/28/3
f 7/26/4 6/29/4 22/30/4 21/27/4
f 6/29/5 5/31/5 23/32/5 22/30/5
f 5/31/4 4/33/4 24/34/4 23/32/4
f 4/33/5 3/35/5 13/36/5 24/34/5
f 3/35/4 2/37/4 14/38/4 13/36/4
f 2/37/5 1/39/5 15/40/5 14/38/5
f 1/39/4 12/41/4 16/42/4 15/40/4
f 12/41/5 11/43/5 17/44/5 16/42/5
f 11/43/4 10/45/4 18/46/4 17/44/4
f 10/45/5 9/47/5 19/48/5 18/46/5
f 9/47/6 8/49/6 20/50/6 19/48/6
f 25/51/1 26/52/1 27/53/1 28/54/1
f 29/55/2 30/56/2 31/57/2 32/58/2
f 25/59/3 28/60/3 32/61/3 31/62/3
f 28/60/4 27/63/4 29/64/4 32/61/4
f 27/63/5 26/65/5 30/66/5 29/64/5
f 26/65/6 25/67/6 31/68/6 30/66/6
f 33/69/1 34/70/1 35/71/1 36/72/1
f 37/73/2 38/74/2 39/75/2 40/76/2
f 33/77/3 36/78/3 40/79/3 39/80/3
f 36/78/4 35/81/4 37/82/4 40/79/4
f 35/81/5 34/83/5 38/84/5 37/82/5
f 34/83/6 33/85/6 39/86/6 38/84/6
f 41/87/1 42/88/1 43/89/1 44/90/1
f 45/91/2 46/92/2 47/93/2 48/94/2
f 41/95/3 44/96/3 48/97/3 47/98/3
f 44/96/4 43/99/4 45/100/4 48/97/4
f 43/99/5 42/101/5 46/102/5 45/100/5
f 42/101/6 41/103/6 47/104/6 46/102/6
f 49/105/1 50/106/1 51/107/1 52/108/1
f 53/109/2 54/110/2 55/111/2 56/112/2
f 49/113/3 52/114/3 56/115/3 55/116/3
f 52/114/4 51/117/4 53/118/4 56/115/4
f 51/117/5 50/119/5 54/120/5 53/118/5
f 50/119/6 49/121/6 55/122/6 54/120/6
